# Blender 3.3.1
# www.blender.org
mtllib hat_halo.mtl
o halo.png
v 5.000000 -3.000000 -7.000000
v 6.000000 -2.000000 -7.000000
v 5.000000 -2.000000 -7.000000
v 6.000000 -3.000000 -7.000000
v 7.000000 -3.000000 -7.000000
v 7.000000 -2.000000 -7.000000
v 8.000000 -3.000000 -7.000000
v 9.000000 -2.000000 -7.000000
v 9.000000 -3.000000 -7.000000
v 10.000000 -3.000000 -7.000000
v 10.000000 -2.000000 -7.000000
v 11.000000 -3.000000 -7.000000
v 12.000000 -3.000000 -7.000000
v 11.000000 -2.000000 -7.000000
v 12.000000 -2.000000 -7.000000
v 13.000000 -3.000000 -7.000000
v 14.000000 -3.000000 -7.000000
v 13.000000 -2.000000 -7.000000
v 15.000000 -3.000000 -7.000000
v 16.000000 -3.000000 -7.000000
v 17.000000 -3.000000 -7.000000
v 4.000000 -2.000000 -7.000000
v 5.000000 -1.000000 -7.000000
v 7.000000 -1.000000 -7.000000
v 6.000000 -1.000000 -7.000000
v 8.000000 -1.000000 -7.000000
v 8.000000 -2.000000 -7.000000
v 9.000000 -1.000000 -7.000000
v 10.000000 -1.000000 -7.000000
v 16.000000 4.000000 -9.000000
v 12.000000 -1.000000 -7.000000
v 11.000000 -1.000000 -7.000000
v 17.000000 4.000000 -9.000000
v 17.000000 3.000000 -9.000000
v 13.000000 -1.000000 -7.000000
v 16.000000 3.000000 -9.000000
v 14.000000 4.000000 -9.000000
v 15.000000 4.000000 -9.000000
v 13.000000 4.000000 -9.000000
v 12.000000 4.000000 -9.000000
v 14.000000 -2.000000 -7.000000
v 12.000000 3.000000 -9.000000
v 11.000000 4.000000 -9.000000
v 14.000000 -1.000000 -7.000000
v 15.000000 -2.000000 -7.000000
v 10.000000 4.000000 -9.000000
v 16.000000 -1.000000 -7.000000
v 15.000000 -1.000000 -7.000000
v 16.000000 -2.000000 -7.000000
v 9.000000 4.000000 -9.000000
v 8.000000 4.000000 -9.000000
v 7.000000 4.000000 -9.000000
v 17.000000 -2.000000 -7.000000
v 18.000000 -2.000000 -7.000000
v 8.000000 3.000000 -9.000000
v 5.000000 4.000000 -9.000000
v 2.000000 -1.000000 -7.000000
v 3.000000 -1.000000 -7.000000
v 6.000000 4.000000 -9.000000
v 6.000000 3.000000 -9.000000
v 18.000000 3.000000 -9.000000
v 4.000000 -1.000000 -7.000000
v 4.000000 0.000000 -7.000000
v 18.000000 2.000000 -9.000000
v 17.000000 2.000000 -9.000000
v 16.000000 2.000000 -9.000000
v 5.000000 0.000000 -7.000000
v 14.000000 3.000000 -9.000000
v 17.000000 -1.000000 -7.000000
v 15.000000 3.000000 -9.000000
v 18.000000 0.000000 -7.000000
v 17.000000 0.000000 -7.000000
v 18.000000 -1.000000 -7.000000
v 19.000000 -1.000000 -7.000000
v 19.000000 0.000000 -7.000000
v 15.000000 2.000000 -9.000000
v 13.000000 3.000000 -9.000000
v 20.000000 -1.000000 -7.000000
v 20.000000 0.000000 -7.000000
v 14.000000 2.000000 -9.000000
v 2.000000 0.000000 -7.000000
v 13.000000 2.000000 -9.000000
v 3.000000 1.000000 -7.000000
v 2.000000 1.000000 -7.000000
v 3.000000 0.000000 -7.000000
v 12.000000 2.000000 -9.000000
v 11.000000 3.000000 -9.000000
v 11.000000 2.000000 -9.000000
v 10.000000 3.000000 -9.000000
v 10.000000 2.000000 -9.000000
v 9.000000 3.000000 -9.000000
v 18.000000 1.000000 -7.000000
v 9.000000 2.000000 -9.000000
v 8.000000 2.000000 -9.000000
v 20.000000 1.000000 -7.000000
v 7.000000 2.000000 -9.000000
v 7.000000 3.000000 -9.000000
v 4.000000 1.000000 -7.000000
v 5.000000 3.000000 -9.000000
v 3.000000 2.000000 -7.000000
v 6.000000 2.000000 -9.000000
v 5.000000 1.000000 -7.000000
v 5.000000 2.000000 -7.000000
v 4.000000 3.000000 -9.000000
v 17.000000 1.000000 -7.000000
v 4.000000 2.000000 -9.000000
v 19.000000 2.000000 -9.000000
v 19.000000 1.000000 -9.000000
v 17.000000 1.000000 -9.000000
v 19.000000 1.000000 -7.000000
v 19.000000 2.000000 -7.000000
v 5.000000 2.000000 -9.000000
v 4.000000 2.000000 -7.000000
v 5.000000 1.000000 -9.000000
v 3.000000 2.000000 -9.000000
v 4.000000 3.000000 -7.000000
v 4.000000 1.000000 -9.000000
v 6.000000 2.000000 -7.000000
v 20.000000 1.000000 -9.000000
v 5.000000 3.000000 -7.000000
v 18.000000 1.000000 -9.000000
v 3.000000 0.000000 -9.000000
v 7.000000 3.000000 -7.000000
v 2.000000 1.000000 -9.000000
v 7.000000 2.000000 -7.000000
v 3.000000 1.000000 -9.000000
v 2.000000 0.000000 -9.000000
v 20.000000 0.000000 -9.000000
v 8.000000 2.000000 -7.000000
v 9.000000 2.000000 -7.000000
v 9.000000 3.000000 -7.000000
v 20.000000 -1.000000 -9.000000
v 19.000000 0.000000 -9.000000
v 10.000000 2.000000 -7.000000
v 10.000000 3.000000 -7.000000
v 19.000000 -1.000000 -9.000000
v 18.000000 -1.000000 -9.000000
v 11.000000 2.000000 -7.000000
v 11.000000 3.000000 -7.000000
v 17.000000 0.000000 -9.000000
v 18.000000 0.000000 -9.000000
v 17.000000 -1.000000 -9.000000
v 5.000000 0.000000 -9.000000
v 4.000000 0.000000 -9.000000
v 12.000000 2.000000 -7.000000
v 4.000000 -1.000000 -9.000000
v 3.000000 -1.000000 -9.000000
v 2.000000 -1.000000 -9.000000
v 13.000000 2.000000 -7.000000
v 14.000000 2.000000 -7.000000
v 18.000000 -2.000000 -9.000000
v 13.000000 3.000000 -7.000000
v 17.000000 -2.000000 -9.000000
v 15.000000 2.000000 -7.000000
v 15.000000 3.000000 -7.000000
v 14.000000 3.000000 -7.000000
v 16.000000 -2.000000 -9.000000
v 16.000000 2.000000 -7.000000
v 15.000000 -1.000000 -9.000000
v 16.000000 -1.000000 -9.000000
v 15.000000 -2.000000 -9.000000
v 17.000000 2.000000 -7.000000
v 14.000000 -1.000000 -9.000000
v 14.000000 -2.000000 -9.000000
v 13.000000 -1.000000 -9.000000
v 18.000000 2.000000 -7.000000
v 18.000000 3.000000 -7.000000
v 11.000000 -1.000000 -9.000000
v 12.000000 -1.000000 -9.000000
v 6.000000 3.000000 -7.000000
v 6.000000 4.000000 -7.000000
v 5.000000 4.000000 -7.000000
v 10.000000 -1.000000 -9.000000
v 9.000000 -1.000000 -9.000000
v 8.000000 -2.000000 -9.000000
v 8.000000 -1.000000 -9.000000
v 6.000000 -1.000000 -9.000000
v 8.000000 3.000000 -7.000000
v 7.000000 -1.000000 -9.000000
v 7.000000 4.000000 -7.000000
v 5.000000 -1.000000 -9.000000
v 4.000000 -2.000000 -9.000000
v 17.000000 -3.000000 -9.000000
v 8.000000 4.000000 -7.000000
v 16.000000 -3.000000 -9.000000
v 15.000000 -3.000000 -9.000000
v 13.000000 -2.000000 -9.000000
v 9.000000 4.000000 -7.000000
v 14.000000 -3.000000 -9.000000
v 13.000000 -3.000000 -9.000000
v 12.000000 -2.000000 -9.000000
v 10.000000 4.000000 -7.000000
v 11.000000 -2.000000 -9.000000
v 12.000000 -3.000000 -9.000000
v 11.000000 -3.000000 -9.000000
v 11.000000 4.000000 -7.000000
v 12.000000 3.000000 -7.000000
v 10.000000 -2.000000 -9.000000
v 10.000000 -3.000000 -9.000000
v 12.000000 4.000000 -7.000000
v 9.000000 -3.000000 -9.000000
v 9.000000 -2.000000 -9.000000
v 8.000000 -3.000000 -9.000000
v 13.000000 4.000000 -7.000000
v 7.000000 -2.000000 -9.000000
v 7.000000 -3.000000 -9.000000
v 15.000000 4.000000 -7.000000
v 14.000000 4.000000 -7.000000
v 6.000000 -3.000000 -9.000000
v 16.000000 3.000000 -7.000000
v 5.000000 -2.000000 -9.000000
v 6.000000 -2.000000 -9.000000
v 5.000000 -3.000000 -9.000000
v 17.000000 3.000000 -7.000000
v 17.000000 4.000000 -7.000000
v 16.000000 4.000000 -7.000000
vn -0.0000 -0.0000 -1.0000
vn -0.0000 -0.0000 1.0000
vn -0.0000 -1.0000 -0.0000
vn 1.0000 -0.0000 -0.0000
vn -0.0000 1.0000 -0.0000
vn -1.0000 -0.0000 -0.0000
s 0
usemtl pixel_art_F7C522FF
f 1//1 3//1 2//1 4//1
f 4//1 2//1 6//1 5//1
f 5//1 6//1 27//1 7//1
f 7//1 27//1 8//1 9//1
f 9//1 8//1 11//1 10//1
f 10//1 11//1 14//1 12//1
f 12//1 14//1 15//1 13//1
f 13//1 15//1 18//1 16//1
f 16//1 18//1 41//1 17//1
f 17//1 41//1 45//1 19//1
f 19//1 45//1 49//1 20//1
f 20//1 49//1 53//1 21//1
f 22//1 62//1 23//1 3//1
f 53//1 69//1 73//1 54//1
f 58//1 85//1 63//1 62//1
f 73//1 71//1 75//1 74//1
f 74//1 75//1 79//1 78//1
f 75//1 110//1 95//1 79//1
f 92//1 166//1 111//1 110//1
f 213//2 209//2 212//2 211//2
f 209//2 206//2 205//2 212//2
f 206//2 203//2 175//2 205//2
f 203//2 201//2 202//2 175//2
f 201//2 199//2 198//2 202//2
f 199//2 195//2 193//2 198//2
f 195//2 194//2 191//2 193//2
f 194//2 190//2 187//2 191//2
f 190//2 189//2 164//2 187//2
f 189//2 186//2 161//2 164//2
f 186//2 185//2 157//2 161//2
f 185//2 183//2 153//2 157//2
f 182//2 211//2 181//2 146//2
f 153//2 151//2 137//2 142//2
f 147//2 146//2 144//2 122//2
f 137//2 136//2 133//2 141//2
f 136//2 132//2 128//2 133//2
f 133//2 128//2 119//2 108//2
f 121//2 108//2 107//2 64//2
f 5//5 7//5 203//5 206//5
f 7//5 9//5 201//5 203//5
f 78//6 79//6 128//6 132//6
f 10//5 12//5 195//5 199//5
f 73//5 74//5 136//5 137//5
f 9//5 10//5 199//5 201//5
f 13//5 16//5 190//5 194//5
f 17//5 19//5 186//5 189//5
f 12//5 13//5 194//5 195//5
f 19//5 20//5 185//5 186//5
f 95//3 110//3 108//3 119//3
f 110//6 111//6 107//6 108//6
f 20//5 21//5 183//5 185//5
f 111//3 166//3 64//3 107//3
f 58//5 62//5 146//5 147//5
f 22//5 3//5 211//5 182//5
f 16//5 17//5 189//5 190//5
f 62//4 22//4 182//4 146//4
f 74//5 78//5 132//5 136//5
f 21//6 53//6 153//6 183//6
f 53//5 54//5 151//5 153//5
f 54//6 73//6 137//6 151//6
f 3//4 1//4 213//4 211//4
f 1//5 4//5 209//5 213//5
f 4//5 5//5 206//5 209//5
f 79//6 95//6 119//6 128//6
usemtl pixel_art_FFF71AFF
f 3//1 23//1 25//1 2//1
f 2//1 25//1 24//1 6//1
f 6//1 24//1 26//1 27//1
f 27//1 26//1 28//1 8//1
f 8//1 28//1 29//1 11//1
f 11//1 29//1 32//1 14//1
f 14//1 32//1 31//1 15//1
f 18//1 35//1 44//1 41//1
f 62//1 63//1 67//1 23//1
f 85//1 83//1 98//1 63//1
f 98//1 113//1 103//1 102//1
f 105//1 162//1 166//1 92//1
f 103//1 120//1 170//1 118//1
f 118//1 170//1 123//1 125//1
f 125//1 123//1 178//1 129//1
f 129//1 178//1 131//1 130//1
f 130//1 131//1 135//1 134//1
f 134//1 135//1 139//1 138//1
f 138//1 139//1 197//1 145//1
f 145//1 197//1 152//1 149//1
f 149//1 152//1 156//1 150//1
f 150//1 156//1 155//1 154//1
f 154//1 155//1 210//1 158//1
f 158//1 210//1 214//1 162//1
f 211//2 212//2 177//2 181//2
f 212//2 205//2 179//2 177//2
f 205//2 175//2 176//2 179//2
f 175//2 202//2 174//2 176//2
f 202//2 198//2 173//2 174//2
f 198//2 193//2 168//2 173//2
f 193//2 191//2 169//2 168//2
f 187//2 164//2 163//2 165//2
f 146//2 181//2 143//2 144//2
f 122//2 144//2 117//2 126//2
f 117//2 114//2 112//2 106//2
f 109//2 121//2 64//2 65//2
f 112//2 101//2 60//2 99//2
f 101//2 96//2 97//2 60//2
f 96//2 94//2 55//2 97//2
f 94//2 93//2 91//2 55//2
f 93//2 90//2 89//2 91//2
f 90//2 88//2 87//2 89//2
f 88//2 86//2 42//2 87//2
f 86//2 82//2 77//2 42//2
f 82//2 80//2 68//2 77//2
f 80//2 76//2 70//2 68//2
f 76//2 66//2 36//2 70//2
f 66//2 65//2 34//2 36//2
f 25//3 23//3 181//3 177//3
f 26//3 24//3 179//3 176//3
f 98//5 102//5 114//5 117//5
f 28//3 26//3 176//3 174//3
f 29//3 28//3 174//3 173//3
f 31//3 32//3 168//3 169//3
f 105//5 92//5 121//5 109//5
f 32//3 29//3 173//3 168//3
f 162//4 105//4 109//4 65//4
f 44//3 35//3 165//3 163//3
f 129//5 130//5 93//5 94//5
f 103//5 118//5 101//5 112//5
f 67//3 63//3 144//3 143//3
f 102//6 103//6 112//6 114//6
f 118//5 125//5 96//5 101//5
f 125//5 129//5 94//5 96//5
f 130//5 134//5 90//5 93//5
f 134//5 138//5 88//5 90//5
f 149//5 150//5 80//5 82//5
f 138//5 145//5 86//5 88//5
f 145//5 149//5 82//5 86//5
f 150//5 154//5 76//5 80//5
f 154//5 158//5 66//5 76//5
f 23//6 67//6 143//6 181//6
f 158//5 162//5 65//5 66//5
f 63//6 98//6 117//6 144//6
f 24//3 25//3 177//3 179//3
usemtl pixel_art_FFFDB9FF
f 15//1 31//1 35//1 18//1
f 41//1 44//1 48//1 45//1
f 57//1 81//1 85//1 58//1
f 71//1 92//1 110//1 75//1
f 162//1 214//1 167//1 166//1
f 123//1 180//1 184//1 178//1
f 131//1 188//1 192//1 135//1
f 139//1 196//1 200//1 197//1
f 197//1 200//1 204//1 152//1
f 152//1 204//1 208//1 156//1
f 155//1 207//1 216//1 210//1
f 210//1 216//1 215//1 214//1
f 191//2 187//2 165//2 169//2
f 164//2 161//2 159//2 163//2
f 148//2 147//2 122//2 127//2
f 141//2 133//2 108//2 121//2
f 65//2 64//2 61//2 34//2
f 97//2 55//2 51//2 52//2
f 91//2 89//2 46//2 50//2
f 87//2 42//2 40//2 43//2
f 42//2 77//2 39//2 40//2
f 77//2 68//2 37//2 39//2
f 70//2 36//2 30//2 38//2
f 36//2 34//2 33//2 30//2
f 35//3 31//3 169//3 165//3
f 48//3 44//3 163//3 159//3
f 81//4 57//4 148//4 127//4
f 167//3 214//3 34//3 61//3
f 184//3 180//3 52//3 51//3
f 192//3 188//3 50//3 46//3
f 200//3 196//3 43//3 40//3
f 204//3 200//3 40//3 39//3
f 208//3 204//3 39//3 37//3
f 92//4 71//4 141//4 121//4
f 216//3 207//3 38//3 30//3
f 215//3 216//3 30//3 33//3
f 57//5 58//5 147//5 148//5
f 166//6 167//6 61//6 64//6
f 214//6 215//6 33//6 34//6
usemtl pixel_art_FFFFFFFF.004
f 45//1 48//1 47//1 49//1
f 49//1 47//1 69//1 53//1
f 69//1 72//1 71//1 73//1
f 81//1 84//1 83//1 85//1
f 83//1 100//1 113//1 98//1
f 113//1 116//1 120//1 103//1
f 120//1 172//1 171//1 170//1
f 170//1 171//1 180//1 123//1
f 178//1 184//1 188//1 131//1
f 135//1 192//1 196//1 139//1
f 156//1 208//1 207//1 155//1
f 161//2 157//2 160//2 159//2
f 157//2 153//2 142//2 160//2
f 142//2 137//2 141//2 140//2
f 127//2 122//2 126//2 124//2
f 126//2 117//2 106//2 115//2
f 106//2 112//2 99//2 104//2
f 99//2 60//2 59//2 56//2
f 60//2 97//2 52//2 59//2
f 55//2 91//2 50//2 51//2
f 89//2 87//2 43//2 46//2
f 68//2 70//2 38//2 37//2
f 116//4 113//4 106//4 104//4
f 100//4 83//4 126//4 115//4
f 172//4 120//4 99//4 56//4
f 72//4 69//4 142//4 140//4
f 47//3 48//3 159//3 160//3
f 69//3 47//3 160//3 142//3
f 84//4 81//4 127//4 124//4
f 113//3 100//3 115//3 106//3
f 171//3 172//3 56//3 59//3
f 120//3 116//3 104//3 99//3
f 71//3 72//3 140//3 141//3
f 180//3 171//3 59//3 52//3
f 83//3 84//3 124//3 126//3
f 188//3 184//3 51//3 50//3
f 196//3 192//3 46//3 43//3
f 207//3 208//3 37//3 38//3
