# Blender 3.3.1
# www.blender.org
mtllib hat_bobblehat.mtl
o bobblehat.png
v 6.000000 -2.000000 -1.000000
v 7.000000 -2.000000 -1.000000
v 6.000000 -2.000000 -2.000000
v 7.000000 -2.000000 -2.000000
v 8.000000 -2.000000 -1.000000
v 9.000000 -2.000000 -1.000000
v 8.000000 -2.000000 -2.000000
v 10.000000 -2.000000 -2.000000
v 9.000000 -2.000000 -2.000000
v 10.000000 -2.000000 -1.000000
v 11.000000 -2.000000 -2.000000
v 11.000000 -2.000000 -1.000000
v 12.000000 -2.000000 -1.000000
v 13.000000 -2.000000 -1.000000
v 14.000000 -2.000000 -1.000000
v 13.000000 -2.000000 -2.000000
v 15.000000 -2.000000 -1.000000
v 16.000000 -2.000000 -1.000000
v 15.000000 -2.000000 -2.000000
v 17.000000 -2.000000 -1.000000
v 17.000000 -2.000000 -2.000000
v 18.000000 -2.000000 -1.000000
v 19.000000 -2.000000 -1.000000
v 5.000000 -2.000000 -2.000000
v 6.000000 -2.000000 -3.000000
v 5.000000 -2.000000 -3.000000
v 12.000000 -2.000000 -2.000000
v 11.000000 -2.000000 -3.000000
v 14.000000 -2.000000 -2.000000
v 16.000000 -2.000000 -2.000000
v 18.000000 -2.000000 -2.000000
v 19.000000 -2.000000 -2.000000
v 20.000000 -2.000000 -2.000000
v 20.000000 -2.000000 -3.000000
v 6.000000 -2.000000 -4.000000
v 7.000000 -2.000000 -3.000000
v 7.000000 -2.000000 -4.000000
v 8.000000 -2.000000 -3.000000
v 9.000000 -2.000000 -3.000000
v 9.000000 -2.000000 -4.000000
v 10.000000 -2.000000 -3.000000
v 10.000000 -2.000000 -4.000000
v 12.000000 -2.000000 -4.000000
v 12.000000 -2.000000 -3.000000
v 13.000000 -2.000000 -3.000000
v 14.000000 -2.000000 -3.000000
v 15.000000 -2.000000 -4.000000
v 14.000000 -2.000000 -4.000000
v 15.000000 -2.000000 -3.000000
v 16.000000 -2.000000 -3.000000
v 17.000000 -2.000000 -3.000000
v 18.000000 -2.000000 -3.000000
v 19.000000 -2.000000 -3.000000
v 19.000000 -2.000000 -4.000000
v 18.000000 -2.000000 -4.000000
v 8.000000 -2.000000 -5.000000
v 7.000000 -2.000000 -5.000000
v 8.000000 -2.000000 -4.000000
v 11.000000 -2.000000 -4.000000
v 12.000000 -2.000000 -5.000000
v 13.000000 -2.000000 -4.000000
v 14.000000 -2.000000 -5.000000
v 16.000000 -2.000000 -4.000000
v 16.000000 -2.000000 -5.000000
v 17.000000 -2.000000 -4.000000
v 18.000000 -2.000000 -5.000000
v 17.000000 -2.000000 -5.000000
v 7.000000 -2.000000 -6.000000
v 9.000000 -2.000000 -5.000000
v 10.000000 -2.000000 -5.000000
v 11.000000 -2.000000 -5.000000
v 11.000000 -2.000000 -6.000000
v 10.000000 -2.000000 -6.000000
v 13.000000 -2.000000 -5.000000
v 15.000000 -2.000000 -6.000000
v 14.000000 -2.000000 -6.000000
v 15.000000 -2.000000 -5.000000
v 16.000000 -2.000000 -6.000000
v 17.000000 -2.000000 -6.000000
v 18.000000 -2.000000 -6.000000
v 8.000000 -2.000000 -6.000000
v 8.000000 -2.000000 -7.000000
v 7.000000 -2.000000 -7.000000
v 9.000000 -2.000000 -7.000000
v 9.000000 -2.000000 -6.000000
v 10.000000 -2.000000 -7.000000
v 12.000000 -2.000000 -7.000000
v 11.000000 -2.000000 -7.000000
v 12.000000 -2.000000 -6.000000
v 13.000000 -2.000000 -6.000000
v 13.000000 -2.000000 -7.000000
v 16.000000 -2.000000 -7.000000
v 18.000000 -2.000000 -7.000000
v 17.000000 -2.000000 -7.000000
v 9.000000 2.000000 -14.000000
v 9.000000 2.000000 -11.000000
v 11.000000 2.000000 -18.000000
v 14.000000 2.000000 -18.000000
v 11.000000 -2.000000 -8.000000
v 10.000000 -2.000000 -8.000000
v 18.000000 2.000000 -6.000000
v 14.000000 2.000000 -15.000000
v 12.000000 2.000000 -14.000000
v 10.000000 2.000000 -14.000000
v 10.000000 2.000000 -13.000000
v 12.000000 2.000000 -13.000000
v 12.000000 2.000000 -12.000000
v 12.000000 -2.000000 -8.000000
v 10.000000 2.000000 -12.000000
v 9.000000 2.000000 -10.000000
v 15.000000 2.000000 -9.000000
v 13.000000 -2.000000 -8.000000
v 14.000000 -2.000000 -7.000000
v 15.000000 -2.000000 -7.000000
v 15.000000 -2.000000 -8.000000
v 14.000000 -2.000000 -8.000000
v 13.000000 2.000000 -9.000000
v 11.000000 2.000000 -9.000000
v 16.000000 2.000000 -7.000000
v 16.000000 2.000000 -6.000000
v 10.000000 2.000000 -7.000000
v 10.000000 2.000000 -15.000000
v 15.000000 2.000000 -5.000000
v 16.000000 -2.000000 -8.000000
v 8.000000 -2.000000 -8.000000
v 9.000000 -2.000000 -8.000000
v 9.000000 -2.000000 -9.000000
v 8.000000 -2.000000 -9.000000
v 13.000000 2.000000 -5.000000
v 15.000000 2.000000 -16.000000
v 10.000000 -2.000000 -9.000000
v 16.000000 2.000000 -16.000000
v 9.000000 2.000000 -5.000000
v 7.000000 2.000000 -6.000000
v 13.000000 2.000000 -14.000000
v 16.000000 2.000000 -5.000000
v 11.000000 2.000000 -14.000000
v 11.000000 2.000000 -13.000000
v 14.000000 2.000000 -5.000000
v 11.000000 -2.000000 -9.000000
v 13.000000 2.000000 -13.000000
v 12.000000 2.000000 -5.000000
v 13.000000 -2.000000 -9.000000
v 15.000000 2.000000 -12.000000
v 13.000000 2.000000 -4.000000
v 11.000000 2.000000 -4.000000
v 11.000000 2.000000 -12.000000
v 16.000000 2.000000 -4.000000
v 13.000000 2.000000 -11.000000
v 13.000000 2.000000 -10.000000
v 17.000000 2.000000 -3.000000
v 12.000000 2.000000 -4.000000
v 11.000000 2.000000 -3.000000
v 8.000000 2.000000 -4.000000
v 14.000000 2.000000 -16.000000
v 6.000000 2.000000 -4.000000
v 10.000000 2.000000 -10.000000
v 17.000000 -2.000000 -8.000000
v 17.000000 -2.000000 -9.000000
v 16.000000 2.000000 -9.000000
v 16.000000 2.000000 -8.000000
v 14.000000 2.000000 -9.000000
v 12.000000 2.000000 -9.000000
v 9.000000 -2.000000 -10.000000
v 12.000000 2.000000 -8.000000
v 12.000000 2.000000 -3.000000
v 10.000000 2.000000 -9.000000
v 13.000000 2.000000 -2.000000
v 11.000000 2.000000 -2.000000
v 12.000000 -2.000000 -9.000000
v 13.000000 2.000000 -8.000000
v 7.000000 2.000000 -2.000000
v 16.000000 2.000000 -2.000000
v 14.000000 2.000000 -2.000000
v 17.000000 2.000000 -6.000000
v 14.000000 2.000000 -1.000000
v 12.000000 2.000000 -2.000000
v 14.000000 -2.000000 -9.000000
v 13.000000 2.000000 -7.000000
v 11.000000 2.000000 -1.000000
v 10.000000 2.000000 -1.000000
v 15.000000 -2.000000 -9.000000
v 9.000000 2.000000 -7.000000
v 9.000000 2.000000 -6.000000
v 12.000000 2.000000 -17.000000
v 16.000000 -2.000000 -9.000000
v 12.000000 2.000000 -16.000000
v 13.000000 2.000000 -17.000000
v 17.000000 2.000000 -7.000000
v 10.000000 -2.000000 -10.000000
v 18.000000 2.000000 -7.000000
v 9.000000 -2.000000 -11.000000
v 10.000000 2.000000 -17.000000
v 11.000000 -2.000000 -10.000000
v 11.000000 -2.000000 -11.000000
v 10.000000 -2.000000 -11.000000
v 10.000000 2.000000 -16.000000
v 12.000000 -2.000000 -10.000000
v 12.000000 -2.000000 -11.000000
v 11.000000 2.000000 -7.000000
v 12.000000 2.000000 -7.000000
v 13.000000 -2.000000 -10.000000
v 13.000000 2.000000 -16.000000
v 13.000000 2.000000 -15.000000
v 7.000000 2.000000 -7.000000
v 14.000000 -2.000000 -10.000000
v 14.000000 -2.000000 -11.000000
v 14.000000 2.000000 -6.000000
v 15.000000 2.000000 -6.000000
v 15.000000 -2.000000 -10.000000
v 15.000000 -2.000000 -11.000000
v 18.000000 2.000000 -5.000000
v 7.000000 2.000000 -5.000000
v 16.000000 -2.000000 -10.000000
v 16.000000 -2.000000 -11.000000
v 8.000000 2.000000 -5.000000
v 12.000000 2.000000 -18.000000
v 13.000000 2.000000 -18.000000
v 6.000000 2.000000 -3.000000
v 10.000000 -2.000000 -12.000000
v 9.000000 2.000000 -2.000000
v 10.000000 2.000000 -2.000000
v 14.000000 2.000000 -17.000000
v 11.000000 -2.000000 -12.000000
v 15.000000 2.000000 -17.000000
v 13.000000 -2.000000 -11.000000
v 8.000000 2.000000 -7.000000
v 8.000000 2.000000 -6.000000
v 11.000000 2.000000 -6.000000
v 14.000000 2.000000 -12.000000
v 13.000000 2.000000 -12.000000
v 10.000000 2.000000 -4.000000
v 10.000000 2.000000 -3.000000
v 20.000000 2.000000 -3.000000
v 15.000000 -2.000000 -12.000000
v 20.000000 2.000000 -2.000000
v 8.000000 2.000000 -9.000000
v 8.000000 2.000000 -8.000000
v 16.000000 2.000000 -15.000000
v 11.000000 -2.000000 -13.000000
v 12.000000 -2.000000 -12.000000
v 16.000000 2.000000 -14.000000
v 10.000000 2.000000 -6.000000
v 11.000000 2.000000 -5.000000
v 13.000000 -2.000000 -12.000000
v 14.000000 -2.000000 -12.000000
v 10.000000 2.000000 -5.000000
v 17.000000 2.000000 -5.000000
v 10.000000 -2.000000 -13.000000
v 17.000000 2.000000 -4.000000
v 16.000000 2.000000 -11.000000
v 16.000000 2.000000 -10.000000
v 14.000000 2.000000 -11.000000
v 12.000000 -2.000000 -13.000000
v 14.000000 2.000000 -10.000000
v 11.000000 -2.000000 -14.000000
v 12.000000 2.000000 -11.000000
v 13.000000 -2.000000 -13.000000
v 12.000000 2.000000 -10.000000
v 16.000000 2.000000 -3.000000
v 15.000000 2.000000 -3.000000
v 14.000000 2.000000 -3.000000
v 13.000000 2.000000 -3.000000
v 7.000000 2.000000 -4.000000
v 14.000000 -2.000000 -13.000000
v 15.000000 -2.000000 -13.000000
v 7.000000 2.000000 -3.000000
v 17.000000 2.000000 -9.000000
v 9.000000 -2.000000 -14.000000
v 17.000000 2.000000 -8.000000
v 9.000000 2.000000 -9.000000
v 9.000000 2.000000 -8.000000
v 10.000000 -2.000000 -14.000000
v 5.000000 2.000000 -3.000000
v 5.000000 2.000000 -2.000000
v 17.000000 2.000000 -2.000000
v 17.000000 2.000000 -1.000000
v 15.000000 2.000000 -2.000000
v 16.000000 2.000000 -1.000000
v 15.000000 2.000000 -1.000000
v 12.000000 -2.000000 -14.000000
v 10.000000 2.000000 -11.000000
v 11.000000 2.000000 -17.000000
v 11.000000 2.000000 -16.000000
v 13.000000 -2.000000 -14.000000
v 10.000000 2.000000 -8.000000
v 14.000000 -2.000000 -15.000000
v 11.000000 2.000000 -8.000000
v 14.000000 -2.000000 -14.000000
v 15.000000 -2.000000 -14.000000
v 15.000000 -2.000000 -15.000000
v 14.000000 2.000000 -4.000000
v 15.000000 2.000000 -4.000000
v 16.000000 -2.000000 -14.000000
v 16.000000 -2.000000 -15.000000
v 12.000000 2.000000 -15.000000
v 9.000000 -2.000000 -15.000000
v 11.000000 2.000000 -15.000000
v 9.000000 2.000000 -16.000000
v 9.000000 -2.000000 -16.000000
v 10.000000 -2.000000 -15.000000
v 9.000000 2.000000 -15.000000
v 14.000000 2.000000 -14.000000
v 15.000000 2.000000 -13.000000
v 11.000000 -2.000000 -15.000000
v 12.000000 -2.000000 -15.000000
v 14.000000 2.000000 -13.000000
v 19.000000 2.000000 -4.000000
v 9.000000 2.000000 -4.000000
v 13.000000 -2.000000 -15.000000
v 13.000000 -2.000000 -16.000000
v 14.000000 2.000000 -8.000000
v 14.000000 2.000000 -7.000000
v 13.000000 2.000000 -6.000000
v 14.000000 -2.000000 -16.000000
v 12.000000 2.000000 -6.000000
v 15.000000 2.000000 -15.000000
v 15.000000 2.000000 -14.000000
v 15.000000 -2.000000 -16.000000
v 18.000000 2.000000 -4.000000
v 15.000000 2.000000 -11.000000
v 15.000000 2.000000 -10.000000
v 16.000000 -2.000000 -16.000000
v 19.000000 2.000000 -3.000000
v 10.000000 -2.000000 -16.000000
v 18.000000 2.000000 -3.000000
v 11.000000 2.000000 -11.000000
v 10.000000 -2.000000 -17.000000
v 11.000000 -2.000000 -16.000000
v 11.000000 2.000000 -10.000000
v 9.000000 2.000000 -3.000000
v 11.000000 -2.000000 -17.000000
v 12.000000 -2.000000 -16.000000
v 8.000000 2.000000 -3.000000
v 19.000000 2.000000 -2.000000
v 12.000000 -2.000000 -17.000000
v 18.000000 2.000000 -2.000000
v 15.000000 2.000000 -8.000000
v 15.000000 2.000000 -7.000000
v 19.000000 2.000000 -1.000000
v 18.000000 2.000000 -1.000000
v 13.000000 2.000000 -1.000000
v 15.000000 -2.000000 -17.000000
v 14.000000 -2.000000 -17.000000
v 12.000000 2.000000 -1.000000
v 8.000000 2.000000 -2.000000
v 9.000000 2.000000 -1.000000
v 11.000000 -2.000000 -18.000000
v 8.000000 2.000000 -1.000000
v 13.000000 -2.000000 -17.000000
v 13.000000 -2.000000 -18.000000
v 12.000000 -2.000000 -18.000000
v 6.000000 2.000000 -2.000000
v 7.000000 2.000000 -1.000000
v 14.000000 -2.000000 -18.000000
v 6.000000 2.000000 -1.000000
vn -0.0000 -1.0000 -0.0000
vn -0.0000 1.0000 -0.0000
vn 1.0000 -0.0000 -0.0000
vn -0.0000 -0.0000 -1.0000
vn -0.0000 -0.0000 1.0000
vn -1.0000 -0.0000 -0.0000
s 0
usemtl pixel_art_3E78D1FF
f 1//1 3//1 4//1 2//1
f 2//1 4//1 7//1 5//1
f 5//1 7//1 9//1 6//1
f 6//1 9//1 8//1 10//1
f 10//1 8//1 11//1 12//1
f 12//1 11//1 27//1 13//1
f 13//1 27//1 16//1 14//1
f 14//1 16//1 29//1 15//1
f 15//1 29//1 19//1 17//1
f 17//1 19//1 30//1 18//1
f 18//1 30//1 21//1 20//1
f 20//1 21//1 31//1 22//1
f 22//1 31//1 32//1 23//1
f 30//1 50//1 51//1 21//1
f 31//1 52//1 53//1 32//1
f 32//1 53//1 34//1 33//1
f 51//1 65//1 55//1 52//1
f 52//1 55//1 54//1 53//1
f 37//1 57//1 56//1 58//1
f 58//1 56//1 69//1 40//1
f 40//1 69//1 70//1 42//1
f 42//1 70//1 71//1 59//1
f 59//1 71//1 60//1 43//1
f 43//1 60//1 74//1 61//1
f 61//1 74//1 62//1 48//1
f 48//1 62//1 77//1 47//1
f 47//1 77//1 64//1 63//1
f 63//1 64//1 67//1 65//1
f 65//1 67//1 66//1 55//1
f 69//1 85//1 73//1 70//1
f 60//1 89//1 90//1 74//1
f 62//1 76//1 75//1 77//1
f 64//1 78//1 79//1 67//1
f 81//1 82//1 84//1 85//1
f 73//1 86//1 88//1 72//1
f 90//1 91//1 113//1 76//1
f 75//1 114//1 92//1 78//1
f 79//1 94//1 93//1 80//1
f 84//1 126//1 100//1 86//1
f 113//1 116//1 115//1 114//1
f 92//1 124//1 158//1 94//1
f 125//1 128//1 127//1 126//1
f 100//1 131//1 140//1 99//1
f 115//1 182//1 186//1 124//1
f 210//1 211//1 215//1 214//1
f 199//1 241//1 245//1 226//1
f 207//1 246//1 235//1 211//1
f 356//2 354//2 172//2 353//2
f 354//2 349//2 346//2 172//2
f 349//2 347//2 221//2 346//2
f 347//2 181//2 222//2 221//2
f 181//2 180//2 169//2 222//2
f 180//2 345//2 177//2 169//2
f 345//2 342//2 168//2 177//2
f 342//2 176//2 174//2 168//2
f 176//2 280//2 278//2 174//2
f 280//2 279//2 173//2 278//2
f 279//2 277//2 276//2 173//2
f 277//2 341//2 337//2 276//2
f 341//2 340//2 335//2 337//2
f 173//2 276//2 151//2 260//2
f 337//2 335//2 324//2 326//2
f 335//2 236//2 234//2 324//2
f 151//2 326//2 320//2 250//2
f 326//2 324//2 308//2 320//2
f 264//2 154//2 216//2 213//2
f 154//2 309//2 133//2 216//2
f 309//2 232//2 247//2 133//2
f 232//2 146//2 244//2 247//2
f 146//2 152//2 142//2 244//2
f 152//2 145//2 129//2 142//2
f 145//2 292//2 139//2 129//2
f 292//2 293//2 123//2 139//2
f 293//2 148//2 136//2 123//2
f 148//2 250//2 248//2 136//2
f 250//2 320//2 212//2 248//2
f 133//2 247//2 243//2 184//2
f 142//2 129//2 314//2 316//2
f 139//2 123//2 209//2 208//2
f 136//2 248//2 175//2 120//2
f 228//2 184//2 183//2 227//2
f 243//2 229//2 200//2 121//2
f 314//2 208//2 313//2 179//2
f 209//2 120//2 119//2 339//2
f 175//2 101//2 191//2 189//2
f 183//2 121//2 286//2 272//2
f 313//2 339//2 338//2 312//2
f 119//2 189//2 270//2 161//2
f 238//2 272//2 271//2 237//2
f 286//2 288//2 118//2 167//2
f 338//2 161//2 160//2 111//2
f 322//2 252//2 251//2 321//2
f 257//2 149//2 231//2 107//2
f 253//2 321//2 144//2 230//2
f 2//5 5//5 349//5 354//5
f 18//5 20//5 277//5 279//5
f 6//5 10//5 181//5 347//5
f 1//5 2//5 354//5 356//5
f 12//5 13//5 345//5 180//5
f 215//4 211//4 321//4 251//4
f 14//5 15//5 176//5 342//5
f 3//6 1//6 356//6 353//6
f 80//3 93//3 191//3 101//3
f 5//5 6//5 347//5 349//5
f 23//3 32//3 335//3 340//3
f 20//5 22//5 341//5 277//5
f 33//3 34//3 234//3 236//3
f 53//3 54//3 308//3 324//3
f 214//3 215//3 251//3 252//3
f 17//5 18//5 279//5 280//5
f 93//4 94//4 189//4 191//4
f 94//3 158//3 270//3 189//3
f 13//5 14//5 342//5 345//5
f 32//5 33//5 236//5 335//5
f 55//3 66//3 212//3 320//3
f 127//4 128//4 237//4 271//4
f 10//5 12//5 180//5 181//5
f 57//6 37//6 264//6 213//6
f 235//4 246//4 230//4 144//4
f 54//4 55//4 320//4 308//4
f 22//5 23//5 340//5 341//5
f 128//6 125//6 238//6 237//6
f 211//3 235//3 144//3 321//3
f 15//5 17//5 280//5 176//5
f 34//4 53//4 324//4 234//4
usemtl pixel_art_C2DDDAFF
f 24//1 26//1 25//1 3//1
f 25//1 35//1 37//1 36//1
f 36//1 37//1 58//1 38//1
f 38//1 58//1 40//1 39//1
f 41//1 42//1 59//1 28//1
f 44//1 43//1 61//1 45//1
f 49//1 47//1 63//1 50//1
f 57//1 68//1 81//1 56//1
f 56//1 81//1 85//1 69//1
f 68//1 83//1 82//1 81//1
f 85//1 84//1 86//1 73//1
f 72//1 88//1 87//1 89//1
f 82//1 125//1 126//1 84//1
f 86//1 100//1 99//1 88//1
f 87//1 108//1 112//1 91//1
f 126//1 127//1 131//1 100//1
f 99//1 140//1 170//1 108//1
f 127//1 164//1 190//1 131//1
f 131//1 190//1 194//1 140//1
f 170//1 198//1 202//1 143//1
f 164//1 192//1 196//1 190//1
f 194//1 195//1 199//1 198//1
f 202//1 226//1 207//1 206//1
f 196//1 220//1 224//1 195//1
f 275//2 353//2 219//2 274//2
f 219//2 267//2 264//2 156//2
f 267//2 334//2 154//2 264//2
f 334//2 331//2 309//2 154//2
f 233//2 153//2 146//2 232//2
f 166//2 263//2 145//2 152//2
f 261//2 260//2 148//2 293//2
f 213//2 216//2 228//2 134//2
f 216//2 133//2 184//2 228//2
f 134//2 228//2 227//2 205//2
f 184//2 243//2 121//2 183//2
f 229//2 316//2 201//2 200//2
f 227//2 183//2 272//2 238//2
f 121//2 200//2 288//2 286//2
f 201//2 179//2 171//2 165//2
f 272//2 286//2 167//2 271//2
f 288//2 165//2 163//2 118//2
f 271//2 167//2 157//2 110//2
f 167//2 118//2 330//2 157//2
f 163//2 117//2 150//2 259//2
f 110//2 157//2 282//2 96//2
f 330//2 259//2 257//2 327//2
f 150//2 255//2 253//2 149//2
f 282//2 327//2 147//2 109//2
f 82//4 83//4 205//4 227//4
f 35//6 25//6 219//6 156//6
f 196//4 192//4 96//4 282//4
f 164//6 127//6 271//6 110//6
f 83//6 68//6 134//6 205//6
f 125//6 82//6 227//6 238//6
f 68//6 57//6 213//6 134//6
f 24//5 3//5 353//5 275//5
f 192//6 164//6 110//6 96//6
f 26//6 24//6 275//6 274//6
f 220//6 196//6 282//6 109//6
f 224//4 220//4 109//4 147//4
f 37//4 35//4 156//4 264//4
f 25//4 26//4 274//4 219//4
usemtl pixel_art_4F9BD1FF
f 3//1 25//1 36//1 4//1
f 4//1 36//1 38//1 7//1
f 7//1 38//1 39//1 9//1
f 9//1 39//1 41//1 8//1
f 8//1 41//1 28//1 11//1
f 11//1 28//1 44//1 27//1
f 27//1 44//1 45//1 16//1
f 16//1 45//1 46//1 29//1
f 29//1 46//1 49//1 19//1
f 19//1 49//1 50//1 30//1
f 21//1 51//1 52//1 31//1
f 39//1 40//1 42//1 41//1
f 28//1 59//1 43//1 44//1
f 45//1 61//1 48//1 46//1
f 46//1 48//1 47//1 49//1
f 50//1 63//1 65//1 51//1
f 70//1 73//1 72//1 71//1
f 71//1 72//1 89//1 60//1
f 74//1 90//1 76//1 62//1
f 77//1 75//1 78//1 64//1
f 67//1 79//1 80//1 66//1
f 89//1 87//1 91//1 90//1
f 76//1 113//1 114//1 75//1
f 78//1 92//1 94//1 79//1
f 88//1 99//1 108//1 87//1
f 91//1 112//1 116//1 113//1
f 114//1 115//1 124//1 92//1
f 108//1 170//1 143//1 112//1
f 112//1 143//1 178//1 116//1
f 116//1 178//1 182//1 115//1
f 124//1 186//1 159//1 158//1
f 140//1 194//1 198//1 170//1
f 143//1 202//1 206//1 178//1
f 178//1 206//1 210//1 182//1
f 182//1 210//1 214//1 186//1
f 190//1 196//1 195//1 194//1
f 198//1 199//1 226//1 202//1
f 206//1 207//1 211//1 210//1
f 195//1 224//1 241//1 199//1
f 226//1 245//1 246//1 207//1
f 353//2 172//2 267//2 219//2
f 172//2 346//2 334//2 267//2
f 346//2 221//2 331//2 334//2
f 221//2 222//2 233//2 331//2
f 222//2 169//2 153//2 233//2
f 169//2 177//2 166//2 153//2
f 177//2 168//2 263//2 166//2
f 168//2 174//2 262//2 263//2
f 174//2 278//2 261//2 262//2
f 278//2 173//2 260//2 261//2
f 276//2 337//2 326//2 151//2
f 331//2 233//2 232//2 309//2
f 153//2 166//2 152//2 146//2
f 263//2 262//2 292//2 145//2
f 262//2 261//2 293//2 292//2
f 260//2 151//2 250//2 148//2
f 247//2 244//2 229//2 243//2
f 244//2 142//2 316//2 229//2
f 129//2 139//2 208//2 314//2
f 123//2 136//2 120//2 209//2
f 248//2 212//2 101//2 175//2
f 316//2 314//2 179//2 201//2
f 208//2 209//2 339//2 313//2
f 120//2 175//2 189//2 119//2
f 200//2 201//2 165//2 288//2
f 179//2 313//2 312//2 171//2
f 339//2 119//2 161//2 338//2
f 165//2 171//2 117//2 163//2
f 171//2 312//2 162//2 117//2
f 312//2 338//2 111//2 162//2
f 161//2 270//2 268//2 160//2
f 118//2 163//2 259//2 330//2
f 117//2 162//2 255//2 150//2
f 162//2 111//2 322//2 255//2
f 111//2 160//2 252//2 322//2
f 157//2 330//2 327//2 282//2
f 259//2 150//2 149//2 257//2
f 255//2 322//2 321//2 253//2
f 327//2 257//2 107//2 147//2
f 149//2 253//2 230//2 231//2
f 159//4 186//4 160//4 268//4
f 186//3 214//3 252//3 160//3
f 158//3 159//3 268//3 270//3
f 66//3 80//3 101//3 212//3
usemtl pixel_art_D5E9F7FF
f 224//1 240//1 254//1 241//1
f 258//1 285//1 289//1 265//1
f 289//1 287//1 291//1 290//1
f 147//2 107//2 106//2 138//2
f 141//2 307//2 303//2 135//2
f 303//2 318//2 317//2 102//2
f 240//6 224//6 147//6 138//6
usemtl pixel_art_C6DEEFFF
f 241//1 254//1 258//1 245//1
f 245//1 258//1 265//1 246//1
f 265//1 289//1 290//1 266//1
f 290//1 291//1 295//1 294//1
f 291//1 319//1 323//1 295//1
f 107//2 231//2 141//2 106//2
f 231//2 230//2 307//2 141//2
f 307//2 304//2 318//2 303//2
f 318//2 242//2 239//2 317//2
f 317//2 239//2 132//2 130//2
f 246//3 265//3 307//3 230//3
f 265//5 266//5 304//5 307//5
f 266//3 290//3 318//3 304//3
f 323//4 319//4 130//4 132//4
f 295//3 323//3 132//3 239//3
f 294//3 295//3 239//3 242//3
f 290//5 294//5 242//5 318//5
usemtl pixel_art_E3F3FFFF
f 249//1 273//1 256//1 240//1
f 254//1 281//1 285//1 258//1
f 256//1 305//1 306//1 281//1
f 285//1 310//1 287//1 289//1
f 301//1 325//1 329//1 305//1
f 306//1 333//1 311//1 310//1
f 310//1 311//1 315//1 287//1
f 287//1 315//1 319//1 291//1
f 329//1 332//1 336//1 333//1
f 311//1 350//1 344//1 315//1
f 105//2 138//2 137//2 104//2
f 106//2 141//2 135//2 103//2
f 137//2 103//2 296//2 298//2
f 135//2 303//2 102//2 204//2
f 122//2 298//2 284//2 197//2
f 296//2 204//2 203//2 187//2
f 204//2 102//2 155//2 203//2
f 102//2 317//2 130//2 155//2
f 284//2 187//2 185//2 283//2
f 203//2 155//2 223//2 188//2
f 249//5 240//5 138//5 105//5
f 273//6 249//6 105//6 104//6
usemtl pixel_art_F5FBFFFF
f 240//1 256//1 281//1 254//1
f 273//1 301//1 305//1 256//1
f 281//1 306//1 310//1 285//1
f 305//1 329//1 333//1 306//1
f 333//1 336//1 350//1 311//1
f 315//1 344//1 343//1 319//1
f 350//1 351//1 355//1 344//1
f 138//2 106//2 103//2 137//2
f 104//2 137//2 298//2 122//2
f 103//2 135//2 204//2 296//2
f 298//2 296//2 187//2 284//2
f 187//2 203//2 188//2 185//2
f 155//2 130//2 225//2 223//2
f 188//2 223//2 98//2 218//2
f 343//4 344//4 223//4 225//4
f 344//3 355//3 98//3 223//3
f 355//4 351//4 218//4 98//4
f 319//3 343//3 225//3 130//3
usemtl pixel_art_FFFFFFFF
f 269//1 297//1 301//1 273//1
f 297//1 300//1 325//1 301//1
f 325//1 328//1 332//1 329//1
f 332//1 348//1 352//1 336//1
f 336//1 352//1 351//1 350//1
f 95//2 104//2 122//2 302//2
f 302//2 122//2 197//2 299//2
f 197//2 284//2 283//2 193//2
f 283//2 185//2 217//2 97//2
f 185//2 188//2 218//2 217//2
f 351//4 352//4 217//4 218//4
f 332//4 328//4 193//4 283//4
f 348//6 332//6 283//6 97//6
f 352//4 348//4 97//4 217//4
f 328//6 325//6 197//6 193//6
f 300//6 297//6 302//6 299//6
f 269//5 273//5 104//5 95//5
f 297//6 269//6 95//6 302//6
f 325//4 300//4 299//4 197//4
