# Blender 3.3.1
# www.blender.org
mtllib hat_numberone.mtl
o no1.png
v 5.000000 -1.500000 -1.000000
v 6.000000 -1.500000 -1.000000
v 7.000000 -1.500000 -1.000000
v 8.000000 -1.500000 -2.000000
v 8.000000 -1.500000 -1.000000
v 9.000000 -1.500000 -1.000000
v 10.000000 -1.500000 -1.000000
v 11.000000 -1.500000 -1.000000
v 12.000000 -1.500000 -1.000000
v 13.000000 -1.500000 -1.000000
v 12.000000 -1.500000 -2.000000
v 14.000000 -1.500000 -1.000000
v 14.000000 -1.500000 -2.000000
v 13.000000 -1.500000 -2.000000
v 15.000000 -1.500000 -1.000000
v 15.000000 -1.500000 -2.000000
v 5.000000 -1.500000 -2.000000
v 6.000000 -1.500000 -3.000000
v 6.000000 -1.500000 -2.000000
v 7.000000 -1.500000 -2.000000
v 8.000000 -1.500000 -3.000000
v 9.000000 -1.500000 -2.000000
v 10.000000 -1.500000 -2.000000
v 11.000000 -1.500000 -2.000000
v 14.000000 -1.500000 -3.000000
v 5.000000 -1.500000 -3.000000
v 5.000000 -1.500000 -4.000000
v 6.000000 -1.500000 -4.000000
v 7.000000 -1.500000 -3.000000
v 8.000000 -1.500000 -4.000000
v 9.000000 -1.500000 -3.000000
v 10.000000 -1.500000 -3.000000
v 11.000000 -1.500000 -3.000000
v 11.000000 -1.500000 -4.000000
v 12.000000 -1.500000 -3.000000
v 12.000000 -1.500000 -4.000000
v 13.000000 -1.500000 -3.000000
v 15.000000 -1.500000 -3.000000
v 15.000000 -1.500000 -4.000000
v 6.000000 -1.500000 -5.000000
v 5.000000 -1.500000 -5.000000
v 7.000000 -1.500000 -4.000000
v 8.000000 -1.500000 -5.000000
v 7.000000 -1.500000 -5.000000
v 9.000000 -1.500000 -4.000000
v 10.000000 -1.500000 -4.000000
v 9.000000 -1.500000 -5.000000
v 13.000000 -1.500000 -4.000000
v 14.000000 -1.500000 -4.000000
v 15.000000 -1.500000 -5.000000
v 6.000000 -1.500000 -6.000000
v 7.000000 -1.500000 -6.000000
v 10.000000 -1.500000 -5.000000
v 10.000000 -1.500000 -6.000000
v 11.000000 -1.500000 -5.000000
v 12.000000 -1.500000 -5.000000
v 13.000000 -1.500000 -5.000000
v 13.000000 -1.500000 -6.000000
v 14.000000 -1.500000 -5.000000
v 15.000000 -1.500000 -6.000000
v 14.000000 -1.500000 -6.000000
v 5.000000 -1.500000 -6.000000
v 6.000000 -1.500000 -7.000000
v 8.000000 -1.500000 -6.000000
v 9.000000 -1.500000 -6.000000
v 10.000000 -1.500000 -7.000000
v 9.000000 -1.500000 -7.000000
v 11.000000 -1.500000 -6.000000
v 12.000000 -1.500000 -6.000000
v 11.000000 -1.500000 -7.000000
v 14.000000 -1.500000 -7.000000
v 15.000000 -1.500000 -7.000000
v 5.000000 -1.500000 -7.000000
v 9.000000 1.500000 -17.000000
v 10.000000 1.500000 -17.000000
v 5.000000 -1.500000 -8.000000
v 8.000000 1.500000 -17.000000
v 9.000000 1.500000 -16.000000
v 7.000000 -1.500000 -8.000000
v 6.000000 -1.500000 -8.000000
v 7.000000 -1.500000 -7.000000
v 8.000000 -1.500000 -7.000000
v 8.000000 -1.500000 -8.000000
v 10.000000 1.500000 -16.000000
v 10.000000 1.500000 -15.000000
v 9.000000 1.500000 -15.000000
v 9.000000 -1.500000 -8.000000
v 8.000000 1.500000 -16.000000
v 7.000000 1.500000 -16.000000
v 8.000000 1.500000 -15.000000
v 10.000000 -1.500000 -8.000000
v 7.000000 1.500000 -15.000000
v 10.000000 1.500000 -14.000000
v 9.000000 1.500000 -14.000000
v 8.000000 1.500000 -14.000000
v 9.000000 1.500000 -13.000000
v 7.000000 1.500000 -14.000000
v 8.000000 1.500000 -13.000000
v 12.000000 -1.500000 -8.000000
v 7.000000 1.500000 -13.000000
v 12.000000 -1.500000 -7.000000
v 10.000000 1.500000 -13.000000
v 13.000000 -1.500000 -8.000000
v 10.000000 1.500000 -12.000000
v 13.000000 -1.500000 -7.000000
v 9.000000 1.500000 -12.000000
v 14.000000 -1.500000 -8.000000
v 8.000000 1.500000 -12.000000
v 9.000000 1.500000 -11.000000
v 8.000000 1.500000 -11.000000
v 7.000000 1.500000 -12.000000
v 12.000000 1.500000 -11.000000
v 11.000000 1.500000 -11.000000
v 10.000000 1.500000 -11.000000
v 6.000000 1.500000 -11.000000
v 5.000000 -1.500000 -9.000000
v 7.000000 1.500000 -11.000000
v 7.000000 1.500000 -10.000000
v 13.000000 1.500000 -10.000000
v 11.000000 1.500000 -10.000000
v 12.000000 1.500000 -10.000000
v 12.000000 1.500000 -9.000000
v 10.000000 1.500000 -10.000000
v 7.000000 -1.500000 -9.000000
v 10.000000 1.500000 -9.000000
v 9.000000 1.500000 -10.000000
v 9.000000 1.500000 -9.000000
v 8.000000 1.500000 -10.000000
v 8.000000 1.500000 -9.000000
v 6.000000 1.500000 -9.000000
v 5.000000 1.500000 -10.000000
v 6.000000 1.500000 -10.000000
v 15.000000 1.500000 -9.000000
v 11.000000 -1.500000 -8.000000
v 11.000000 -1.500000 -9.000000
v 15.000000 1.500000 -8.000000
v 13.000000 1.500000 -9.000000
v 14.000000 1.500000 -9.000000
v 11.000000 1.500000 -9.000000
v 11.000000 1.500000 -8.000000
v 7.000000 1.500000 -9.000000
v 5.000000 1.500000 -9.000000
v 14.000000 1.500000 -8.000000
v 13.000000 1.500000 -7.000000
v 13.000000 1.500000 -8.000000
v 12.000000 1.500000 -7.000000
v 14.000000 -1.500000 -9.000000
v 13.000000 -1.500000 -9.000000
v 12.000000 1.500000 -8.000000
v 15.000000 -1.500000 -8.000000
v 15.000000 -1.500000 -9.000000
v 10.000000 1.500000 -8.000000
v 9.000000 1.500000 -8.000000
v 8.000000 1.500000 -8.000000
v 6.000000 -1.500000 -10.000000
v 5.000000 -1.500000 -10.000000
v 6.000000 -1.500000 -9.000000
v 8.000000 1.500000 -7.000000
v 7.000000 1.500000 -7.000000
v 6.000000 1.500000 -8.000000
v 7.000000 1.500000 -8.000000
v 8.000000 -1.500000 -9.000000
v 8.000000 -1.500000 -10.000000
v 5.000000 1.500000 -8.000000
v 5.000000 1.500000 -7.000000
v 9.000000 -1.500000 -9.000000
v 9.000000 -1.500000 -10.000000
v 15.000000 1.500000 -7.000000
v 14.000000 1.500000 -7.000000
v 10.000000 -1.500000 -9.000000
v 11.000000 1.500000 -7.000000
v 12.000000 1.500000 -6.000000
v 11.000000 1.500000 -6.000000
v 9.000000 1.500000 -7.000000
v 10.000000 1.500000 -7.000000
v 10.000000 -1.500000 -10.000000
v 9.000000 1.500000 -6.000000
v 12.000000 -1.500000 -9.000000
v 12.000000 -1.500000 -10.000000
v 11.000000 -1.500000 -10.000000
v 8.000000 1.500000 -6.000000
v 6.000000 1.500000 -7.000000
v 13.000000 -1.500000 -10.000000
v 5.000000 1.500000 -6.000000
v 14.000000 1.500000 -6.000000
v 7.000000 -1.500000 -10.000000
v 7.000000 -1.500000 -11.000000
v 6.000000 -1.500000 -11.000000
v 15.000000 1.500000 -6.000000
v 14.000000 1.500000 -5.000000
v 13.000000 1.500000 -6.000000
v 13.000000 1.500000 -5.000000
v 12.000000 1.500000 -5.000000
v 11.000000 1.500000 -5.000000
v 10.000000 1.500000 -6.000000
v 10.000000 1.500000 -5.000000
v 7.000000 1.500000 -6.000000
v 6.000000 1.500000 -6.000000
v 10.000000 -1.500000 -11.000000
v 15.000000 1.500000 -5.000000
v 14.000000 1.500000 -4.000000
v 13.000000 1.500000 -4.000000
v 11.000000 -1.500000 -11.000000
v 9.000000 1.500000 -5.000000
v 10.000000 1.500000 -4.000000
v 9.000000 1.500000 -4.000000
v 12.000000 -1.500000 -11.000000
v 7.000000 1.500000 -5.000000
v 8.000000 1.500000 -5.000000
v 7.000000 1.500000 -4.000000
v 5.000000 1.500000 -5.000000
v 7.000000 -1.500000 -12.000000
v 8.000000 -1.500000 -11.000000
v 9.000000 -1.500000 -11.000000
v 6.000000 1.500000 -5.000000
v 15.000000 1.500000 -4.000000
v 15.000000 1.500000 -3.000000
v 13.000000 1.500000 -3.000000
v 12.000000 1.500000 -4.000000
v 12.000000 1.500000 -3.000000
v 11.000000 1.500000 -4.000000
v 11.000000 1.500000 -3.000000
v 10.000000 1.500000 -3.000000
v 9.000000 1.500000 -3.000000
v 8.000000 -1.500000 -12.000000
v 8.000000 1.500000 -4.000000
v 7.000000 1.500000 -3.000000
v 6.000000 1.500000 -4.000000
v 9.000000 -1.500000 -12.000000
v 10.000000 -1.500000 -12.000000
v 10.000000 -1.500000 -13.000000
v 5.000000 1.500000 -4.000000
v 7.000000 -1.500000 -13.000000
v 8.000000 -1.500000 -13.000000
v 5.000000 1.500000 -3.000000
v 7.000000 -1.500000 -14.000000
v 14.000000 1.500000 -3.000000
v 11.000000 1.500000 -2.000000
v 10.000000 1.500000 -2.000000
v 9.000000 1.500000 -2.000000
v 9.000000 -1.500000 -13.000000
v 8.000000 1.500000 -3.000000
v 7.000000 1.500000 -2.000000
v 6.000000 1.500000 -2.000000
v 6.000000 1.500000 -3.000000
v 5.000000 1.500000 -2.000000
v 15.000000 1.500000 -2.000000
v 15.000000 1.500000 -1.000000
v 8.000000 -1.500000 -14.000000
v 9.000000 -1.500000 -14.000000
v 13.000000 1.500000 -2.000000
v 14.000000 1.500000 -2.000000
v 14.000000 1.500000 -1.000000
v 10.000000 -1.500000 -14.000000
v 12.000000 1.500000 -2.000000
v 13.000000 1.500000 -1.000000
v 7.000000 -1.500000 -15.000000
v 8.000000 -1.500000 -15.000000
v 12.000000 1.500000 -1.000000
v 7.000000 -1.500000 -16.000000
v 11.000000 1.500000 -1.000000
v 10.000000 1.500000 -1.000000
v 9.000000 1.500000 -1.000000
v 8.000000 -1.500000 -16.000000
v 9.000000 -1.500000 -15.000000
v 10.000000 -1.500000 -15.000000
v 10.000000 -1.500000 -16.000000
v 8.000000 1.500000 -1.000000
v 8.000000 1.500000 -2.000000
v 9.000000 -1.500000 -16.000000
v 7.000000 1.500000 -1.000000
v 8.000000 -1.500000 -17.000000
v 6.000000 1.500000 -1.000000
v 5.000000 1.500000 -1.000000
v 10.000000 -1.500000 -17.000000
v 9.000000 -1.500000 -17.000000
vn -0.0000 -1.0000 -0.0000
vn -0.0000 1.0000 -0.0000
vn -1.0000 -0.0000 -0.0000
vn -0.0000 -0.0000 1.0000
vn -0.0000 -0.0000 -1.0000
vn 1.0000 -0.0000 -0.0000
s 0
usemtl pixel_art_FDC2D2FF
f 1//1 17//1 19//1 2//1
f 2//1 19//1 20//1 3//1
f 5//1 4//1 22//1 6//1
f 7//1 23//1 24//1 8//1
f 61//1 71//1 72//1 60//1
f 101//1 99//1 103//1 105//1
f 91//1 170//1 135//1 134//1
f 116//1 156//1 155//1 157//1
f 155//1 188//1 187//1 186//1
f 186//1 187//1 213//1 163//1
f 163//1 213//1 214//1 167//1
f 274//2 273//2 244//2 246//2
f 273//2 271//2 243//2 244//2
f 268//2 263//2 240//2 269//2
f 262//2 261//2 238//2 239//2
f 185//2 189//2 168//2 169//2
f 146//2 144//2 145//2 149//2
f 152//2 140//2 139//2 125//2
f 142//2 130//2 132//2 131//2
f 132//2 118//2 117//2 115//2
f 118//2 128//2 110//2 117//2
f 128//2 126//2 109//2 110//2
f 17//3 1//3 274//3 246//3
f 1//4 2//4 273//4 274//4
f 2//4 3//4 271//4 273//4
f 187//5 188//5 115//5 117//5
f 156//3 116//3 142//3 131//3
f 5//4 6//4 263//4 268//4
f 60//6 72//6 168//6 189//6
f 188//3 155//3 132//3 115//3
f 7//4 8//4 261//4 262//4
f 155//5 156//5 131//5 132//5
usemtl pixel_art_F191ACFF
f 3//1 20//1 4//1 5//1
f 6//1 22//1 23//1 7//1
f 8//1 24//1 11//1 9//1
f 9//1 11//1 14//1 10//1
f 10//1 14//1 13//1 12//1
f 12//1 13//1 16//1 15//1
f 34//1 55//1 56//1 36//1
f 36//1 56//1 57//1 48//1
f 48//1 57//1 59//1 49//1
f 49//1 59//1 50//1 39//1
f 43//1 64//1 65//1 47//1
f 53//1 54//1 68//1 55//1
f 56//1 69//1 58//1 57//1
f 59//1 61//1 60//1 50//1
f 52//1 81//1 82//1 64//1
f 54//1 66//1 70//1 68//1
f 69//1 101//1 105//1 58//1
f 63//1 80//1 79//1 81//1
f 66//1 91//1 134//1 70//1
f 79//1 124//1 162//1 83//1
f 162//1 163//1 167//1 166//1
f 271//2 268//2 269//2 243//2
f 263//2 262//2 239//2 240//2
f 261//2 259//2 255//2 238//2
f 259//2 256//2 251//2 255//2
f 256//2 253//2 252//2 251//2
f 253//2 248//2 247//2 252//2
f 221//2 219//2 193//2 194//2
f 219//2 202//2 192//2 193//2
f 202//2 201//2 190//2 192//2
f 201//2 216//2 200//2 190//2
f 209//2 204//2 177//2 181//2
f 196//2 194//2 173//2 195//2
f 193//2 192//2 191//2 172//2
f 190//2 200//2 189//2 185//2
f 197//2 181//2 158//2 159//2
f 195//2 173//2 171//2 175//2
f 172//2 191//2 144//2 146//2
f 182//2 159//2 161//2 160//2
f 175//2 171//2 140//2 152//2
f 161//2 154//2 129//2 141//2
f 129//2 127//2 126//2 128//2
f 12//4 15//4 248//4 253//4
f 39//6 50//6 200//6 216//6
f 3//4 5//4 268//4 271//4
f 6//4 7//4 262//4 263//4
f 50//6 60//6 189//6 200//6
f 8//4 9//4 259//4 261//4
f 9//4 10//4 256//4 259//4
f 15//6 16//6 247//6 248//6
f 10//4 12//4 253//4 256//4
usemtl pixel_art_BF1472FF
f 17//1 26//1 18//1 19//1
f 19//1 18//1 29//1 20//1
f 20//1 29//1 21//1 4//1
f 4//1 21//1 31//1 22//1
f 22//1 31//1 32//1 23//1
f 23//1 32//1 33//1 24//1
f 24//1 33//1 35//1 11//1
f 11//1 35//1 37//1 14//1
f 14//1 37//1 25//1 13//1
f 13//1 25//1 38//1 16//1
f 31//1 45//1 46//1 32//1
f 32//1 46//1 34//1 33//1
f 33//1 34//1 36//1 35//1
f 35//1 36//1 48//1 37//1
f 37//1 48//1 49//1 25//1
f 25//1 49//1 39//1 38//1
f 45//1 47//1 53//1 46//1
f 46//1 53//1 55//1 34//1
f 47//1 65//1 54//1 53//1
f 64//1 82//1 67//1 65//1
f 65//1 67//1 66//1 54//1
f 81//1 79//1 83//1 82//1
f 82//1 83//1 87//1 67//1
f 67//1 87//1 91//1 66//1
f 83//1 162//1 166//1 87//1
f 87//1 166//1 170//1 91//1
f 166//1 167//1 176//1 170//1
f 167//1 214//1 199//1 176//1
f 187//1 212//1 225//1 213//1
f 213//1 225//1 229//1 214//1
f 214//1 229//1 230//1 199//1
f 229//1 241//1 231//1 230//1
f 246//2 244//2 245//2 235//2
f 244//2 243//2 227//2 245//2
f 243//2 269//2 242//2 227//2
f 269//2 240//2 224//2 242//2
f 240//2 239//2 223//2 224//2
f 239//2 238//2 222//2 223//2
f 238//2 255//2 220//2 222//2
f 255//2 251//2 218//2 220//2
f 251//2 252//2 237//2 218//2
f 252//2 247//2 217//2 237//2
f 224//2 223//2 205//2 206//2
f 223//2 222//2 221//2 205//2
f 222//2 220//2 219//2 221//2
f 220//2 218//2 202//2 219//2
f 218//2 237//2 201//2 202//2
f 237//2 217//2 216//2 201//2
f 206//2 205//2 196//2 204//2
f 205//2 221//2 194//2 196//2
f 204//2 196//2 195//2 177//2
f 181//2 177//2 174//2 158//2
f 177//2 195//2 175//2 174//2
f 159//2 158//2 154//2 161//2
f 158//2 174//2 153//2 154//2
f 174//2 175//2 152//2 153//2
f 154//2 153//2 127//2 129//2
f 153//2 152//2 125//2 127//2
f 127//2 125//2 123//2 126//2
f 126//2 123//2 114//2 109//2
f 117//2 110//2 108//2 111//2
f 110//2 109//2 106//2 108//2
f 109//2 114//2 104//2 106//2
f 106//2 104//2 102//2 96//2
f 212//3 187//3 117//3 111//3
f 26//3 17//3 246//3 235//3
f 38//6 39//6 216//6 217//6
f 230//6 231//6 102//6 104//6
f 199//6 230//6 104//6 114//6
f 16//6 38//6 217//6 247//6
usemtl pixel_art_ED2D64FF
f 26//1 27//1 28//1 18//1
f 27//1 41//1 40//1 28//1
f 28//1 40//1 44//1 42//1
f 41//1 62//1 51//1 40//1
f 62//1 73//1 63//1 51//1
f 51//1 63//1 81//1 52//1
f 73//1 76//1 80//1 63//1
f 76//1 116//1 157//1 80//1
f 80//1 157//1 124//1 79//1
f 103//1 148//1 147//1 107//1
f 107//1 147//1 151//1 150//1
f 157//1 155//1 186//1 124//1
f 124//1 186//1 163//1 162//1
f 178//1 179//1 183//1 148//1
f 176//1 199//1 203//1 180//1
f 180//1 203//1 207//1 179//1
f 233//1 236//1 249//1 234//1
f 257//1 260//1 264//1 258//1
f 264//1 272//1 276//1 270//1
f 270//1 276//1 275//1 267//1
f 235//2 245//2 228//2 232//2
f 232//2 228//2 215//2 211//2
f 228//2 210//2 208//2 215//2
f 211//2 215//2 198//2 184//2
f 184//2 198//2 182//2 165//2
f 198//2 197//2 159//2 182//2
f 165//2 182//2 160//2 164//2
f 164//2 160//2 130//2 142//2
f 160//2 161//2 141//2 130//2
f 145//2 143//2 138//2 137//2
f 143//2 136//2 133//2 138//2
f 130//2 141//2 118//2 132//2
f 141//2 129//2 128//2 118//2
f 122//2 137//2 119//2 121//2
f 123//2 120//2 113//2 114//2
f 120//2 121//2 112//2 113//2
f 100//2 98//2 95//2 97//2
f 92//2 90//2 88//2 89//2
f 88//2 78//2 74//2 77//2
f 78//2 84//2 75//2 74//2
f 116//3 76//3 164//3 142//3
f 236//3 233//3 100//3 97//3
f 41//3 27//3 232//3 211//3
f 275//5 276//5 74//5 75//5
f 62//3 41//3 211//3 184//3
f 148//6 183//6 119//6 137//6
f 272//3 264//3 88//3 77//3
f 27//3 26//3 235//3 232//3
f 76//3 73//3 165//3 164//3
f 151//5 147//5 138//5 133//5
f 183//5 179//5 121//5 119//5
f 267//6 275//6 75//6 84//6
f 203//5 199//5 114//5 113//5
f 207//5 203//5 113//5 112//5
f 260//3 257//3 92//3 89//3
f 264//5 260//5 89//5 88//5
f 276//5 272//5 77//5 74//5
f 147//5 148//5 137//5 138//5
f 179//6 207//6 112//6 121//6
f 150//6 151//6 133//6 136//6
f 73//3 62//3 184//3 165//3
usemtl pixel_art_DB154DFF
f 18//1 28//1 42//1 29//1
f 29//1 42//1 30//1 21//1
f 21//1 30//1 45//1 31//1
f 42//1 44//1 43//1 30//1
f 30//1 43//1 47//1 45//1
f 40//1 51//1 52//1 44//1
f 44//1 52//1 64//1 43//1
f 55//1 68//1 69//1 56//1
f 57//1 58//1 61//1 59//1
f 68//1 70//1 101//1 69//1
f 58//1 105//1 71//1 61//1
f 70//1 134//1 99//1 101//1
f 105//1 103//1 107//1 71//1
f 71//1 107//1 150//1 72//1
f 134//1 135//1 178//1 99//1
f 99//1 178//1 148//1 103//1
f 170//1 176//1 180//1 135//1
f 135//1 180//1 179//1 178//1
f 212//1 233//1 234//1 225//1
f 225//1 234//1 241//1 229//1
f 234//1 249//1 250//1 241//1
f 241//1 250//1 254//1 231//1
f 236//1 257//1 258//1 249//1
f 249//1 258//1 265//1 250//1
f 250//1 265//1 266//1 254//1
f 258//1 264//1 270//1 265//1
f 265//1 270//1 267//1 266//1
f 245//2 227//2 210//2 228//2
f 227//2 242//2 226//2 210//2
f 242//2 224//2 206//2 226//2
f 210//2 226//2 209//2 208//2
f 226//2 206//2 204//2 209//2
f 215//2 208//2 197//2 198//2
f 208//2 209//2 181//2 197//2
f 194//2 193//2 172//2 173//2
f 192//2 190//2 185//2 191//2
f 173//2 172//2 146//2 171//2
f 191//2 185//2 169//2 144//2
f 171//2 146//2 149//2 140//2
f 144//2 169//2 143//2 145//2
f 169//2 168//2 136//2 143//2
f 140//2 149//2 122//2 139//2
f 149//2 145//2 137//2 122//2
f 125//2 139//2 120//2 123//2
f 139//2 122//2 121//2 120//2
f 111//2 108//2 98//2 100//2
f 108//2 106//2 96//2 98//2
f 98//2 96//2 94//2 95//2
f 96//2 102//2 93//2 94//2
f 97//2 95//2 90//2 92//2
f 95//2 94//2 86//2 90//2
f 94//2 93//2 85//2 86//2
f 90//2 86//2 78//2 88//2
f 86//2 85//2 84//2 78//2
f 233//3 212//3 111//3 100//3
f 254//6 266//6 85//6 93//6
f 266//6 267//6 84//6 85//6
f 257//3 236//3 97//3 92//3
f 72//6 150//6 136//6 168//6
f 231//6 254//6 93//6 102//6
