# Blender 3.3.1
# www.blender.org
mtllib hat_star.mtl
o star.png
v 5.000000 -1.500000 -3.000000
v 6.000000 -1.500000 -3.000000
v 5.000000 -1.500000 -4.000000
v 7.000000 -1.500000 -3.000000
v 8.000000 -1.500000 -3.000000
v 8.000000 -1.500000 -4.000000
v 7.000000 -1.500000 -4.000000
v 13.000000 -1.500000 -3.000000
v 14.000000 -1.500000 -3.000000
v 15.000000 -1.500000 -3.000000
v 16.000000 -1.500000 -3.000000
v 16.000000 -1.500000 -4.000000
v 6.000000 -1.500000 -4.000000
v 9.000000 -1.500000 -4.000000
v 9.000000 -1.500000 -5.000000
v 8.000000 -1.500000 -5.000000
v 12.000000 -1.500000 -4.000000
v 13.000000 -1.500000 -4.000000
v 13.000000 -1.500000 -5.000000
v 14.000000 -1.500000 -4.000000
v 15.000000 -1.500000 -4.000000
v 15.000000 -1.500000 -5.000000
v 6.000000 -1.500000 -5.000000
v 7.000000 -1.500000 -5.000000
v 7.000000 -1.500000 -6.000000
v 6.000000 -1.500000 -6.000000
v 10.000000 -1.500000 -5.000000
v 10.000000 -1.500000 -6.000000
v 9.000000 -1.500000 -6.000000
v 11.000000 -1.500000 -5.000000
v 12.000000 -1.500000 -6.000000
v 12.000000 -1.500000 -5.000000
v 14.000000 -1.500000 -5.000000
v 14.000000 -1.500000 -6.000000
v 15.000000 -1.500000 -6.000000
v 8.000000 -1.500000 -7.000000
v 8.000000 -1.500000 -6.000000
v 9.000000 -1.500000 -7.000000
v 11.000000 -1.500000 -6.000000
v 11.000000 -1.500000 -7.000000
v 13.000000 -1.500000 -6.000000
v 14.000000 -1.500000 -7.000000
v 13.000000 -1.500000 -7.000000
v 6.000000 -1.500000 -7.000000
v 7.000000 -1.500000 -7.000000
v 10.000000 1.500000 -13.000000
v 9.000000 -1.500000 -8.000000
v 11.000000 1.500000 -13.000000
v 11.000000 1.500000 -12.000000
v 10.000000 -1.500000 -7.000000
v 12.000000 1.500000 -12.000000
v 9.000000 1.500000 -12.000000
v 10.000000 1.500000 -12.000000
v 9.000000 1.500000 -11.000000
v 12.000000 1.500000 -11.000000
v 10.000000 1.500000 -11.000000
v 11.000000 1.500000 -11.000000
v 12.000000 -1.500000 -7.000000
v 10.000000 1.500000 -10.000000
v 16.000000 1.500000 -10.000000
v 17.000000 1.500000 -10.000000
v 17.000000 1.500000 -9.000000
v 15.000000 1.500000 -10.000000
v 13.000000 1.500000 -10.000000
v 14.000000 1.500000 -10.000000
v 12.000000 1.500000 -9.000000
v 14.000000 -1.500000 -8.000000
v 12.000000 1.500000 -10.000000
v 11.000000 1.500000 -9.000000
v 15.000000 -1.500000 -7.000000
v 11.000000 1.500000 -10.000000
v 9.000000 1.500000 -10.000000
v 5.000000 -1.500000 -8.000000
v 8.000000 1.500000 -10.000000
v 8.000000 1.500000 -9.000000
v 6.000000 1.500000 -10.000000
v 6.000000 -1.500000 -8.000000
v 7.000000 1.500000 -10.000000
v 7.000000 1.500000 -9.000000
v 6.000000 1.500000 -9.000000
v 7.000000 -1.500000 -8.000000
v 4.000000 1.500000 -10.000000
v 5.000000 1.500000 -10.000000
v 5.000000 1.500000 -9.000000
v 8.000000 -1.500000 -8.000000
v 4.000000 1.500000 -9.000000
v 16.000000 1.500000 -9.000000
v 16.000000 1.500000 -8.000000
v 14.000000 1.500000 -9.000000
v 15.000000 1.500000 -9.000000
v 15.000000 1.500000 -8.000000
v 9.000000 -1.500000 -9.000000
v 10.000000 -1.500000 -8.000000
v 13.000000 1.500000 -9.000000
v 13.000000 1.500000 -8.000000
v 10.000000 -1.500000 -9.000000
v 11.000000 -1.500000 -8.000000
v 12.000000 1.500000 -8.000000
v 11.000000 1.500000 -8.000000
v 10.000000 1.500000 -9.000000
v 12.000000 -1.500000 -8.000000
v 13.000000 -1.500000 -8.000000
v 13.000000 -1.500000 -9.000000
v 10.000000 1.500000 -8.000000
v 9.000000 1.500000 -9.000000
v 8.000000 1.500000 -8.000000
v 7.000000 1.500000 -8.000000
v 6.000000 1.500000 -8.000000
v 5.000000 1.500000 -8.000000
v 15.000000 -1.500000 -8.000000
v 15.000000 -1.500000 -9.000000
v 14.000000 -1.500000 -9.000000
v 15.000000 1.500000 -7.000000
v 16.000000 -1.500000 -8.000000
v 16.000000 -1.500000 -9.000000
v 14.000000 1.500000 -8.000000
v 4.000000 -1.500000 -9.000000
v 5.000000 -1.500000 -9.000000
v 5.000000 -1.500000 -10.000000
v 4.000000 -1.500000 -10.000000
v 12.000000 1.500000 -7.000000
v 6.000000 -1.500000 -9.000000
v 10.000000 1.500000 -7.000000
v 9.000000 1.500000 -8.000000
v 7.000000 1.500000 -7.000000
v 7.000000 -1.500000 -9.000000
v 7.000000 -1.500000 -10.000000
v 6.000000 -1.500000 -10.000000
v 6.000000 1.500000 -7.000000
v 8.000000 -1.500000 -9.000000
v 8.000000 -1.500000 -10.000000
v 13.000000 1.500000 -7.000000
v 14.000000 1.500000 -7.000000
v 13.000000 1.500000 -6.000000
v 11.000000 1.500000 -7.000000
v 11.000000 1.500000 -6.000000
v 9.000000 1.500000 -7.000000
v 8.000000 1.500000 -6.000000
v 8.000000 1.500000 -7.000000
v 9.000000 -1.500000 -10.000000
v 15.000000 1.500000 -6.000000
v 14.000000 1.500000 -6.000000
v 11.000000 -1.500000 -10.000000
v 14.000000 1.500000 -5.000000
v 11.000000 -1.500000 -9.000000
v 12.000000 1.500000 -5.000000
v 12.000000 -1.500000 -10.000000
v 12.000000 1.500000 -6.000000
v 12.000000 -1.500000 -9.000000
v 11.000000 1.500000 -5.000000
v 9.000000 1.500000 -6.000000
v 10.000000 1.500000 -6.000000
v 10.000000 1.500000 -5.000000
v 6.000000 1.500000 -6.000000
v 14.000000 -1.500000 -10.000000
v 13.000000 -1.500000 -10.000000
v 7.000000 1.500000 -6.000000
v 7.000000 1.500000 -5.000000
v 6.000000 1.500000 -5.000000
v 15.000000 1.500000 -5.000000
v 15.000000 1.500000 -4.000000
v 14.000000 1.500000 -4.000000
v 13.000000 1.500000 -5.000000
v 15.000000 -1.500000 -10.000000
v 13.000000 1.500000 -4.000000
v 17.000000 -1.500000 -9.000000
v 17.000000 -1.500000 -10.000000
v 16.000000 -1.500000 -10.000000
v 12.000000 1.500000 -4.000000
v 10.000000 -1.500000 -10.000000
v 8.000000 1.500000 -5.000000
v 9.000000 1.500000 -5.000000
v 9.000000 1.500000 -4.000000
v 6.000000 1.500000 -4.000000
v 11.000000 -1.500000 -11.000000
v 10.000000 -1.500000 -11.000000
v 16.000000 1.500000 -4.000000
v 16.000000 1.500000 -3.000000
v 12.000000 -1.500000 -11.000000
v 15.000000 1.500000 -3.000000
v 9.000000 -1.500000 -11.000000
v 14.000000 1.500000 -3.000000
v 10.000000 -1.500000 -12.000000
v 9.000000 -1.500000 -12.000000
v 13.000000 1.500000 -3.000000
v 7.000000 1.500000 -4.000000
v 8.000000 1.500000 -4.000000
v 8.000000 1.500000 -3.000000
v 7.000000 1.500000 -3.000000
v 5.000000 1.500000 -4.000000
v 12.000000 -1.500000 -12.000000
v 11.000000 -1.500000 -12.000000
v 6.000000 1.500000 -3.000000
v 5.000000 1.500000 -3.000000
v 11.000000 -1.500000 -13.000000
v 10.000000 -1.500000 -13.000000
vn -0.0000 -1.0000 -0.0000
vn -0.0000 1.0000 -0.0000
vn -0.0000 -0.0000 1.0000
vn 1.0000 -0.0000 -0.0000
vn -1.0000 -0.0000 -0.0000
vn -0.0000 -0.0000 -1.0000
s 0
usemtl pixel_art_E5B550FF
f 1//1 3//1 13//1 2//1
f 2//1 13//1 7//1 4//1
f 4//1 7//1 6//1 5//1
f 8//1 18//1 20//1 9//1
f 9//1 20//1 21//1 10//1
f 10//1 21//1 12//1 11//1
f 6//1 16//1 15//1 14//1
f 17//1 32//1 19//1 18//1
f 20//1 33//1 22//1 21//1
f 15//1 29//1 28//1 27//1
f 27//1 28//1 39//1 30//1
f 30//1 39//1 31//1 32//1
f 33//1 34//1 35//1 22//1
f 41//1 43//1 42//1 34//1
f 44//1 77//1 81//1 45//1
f 42//1 67//1 110//1 70//1
f 73//1 118//1 122//1 77//1
f 110//1 111//1 115//1 114//1
f 115//1 168//1 167//1 166//1
f 143//1 175//1 179//1 147//1
f 175//1 192//1 191//1 179//1
f 194//2 193//2 174//2 190//2
f 193//2 189//2 186//2 174//2
f 189//2 188//2 187//2 186//2
f 185//2 182//2 162//2 165//2
f 182//2 180//2 161//2 162//2
f 180//2 178//2 177//2 161//2
f 187//2 173//2 172//2 171//2
f 169//2 165//2 163//2 146//2
f 162//2 161//2 160//2 144//2
f 172//2 153//2 152//2 151//2
f 153//2 150//2 136//2 152//2
f 150//2 146//2 148//2 136//2
f 144//2 160//2 141//2 142//2
f 134//2 142//2 133//2 132//2
f 129//2 125//2 107//2 108//2
f 133//2 113//2 91//2 116//2
f 109//2 108//2 80//2 84//2
f 91//2 88//2 87//2 90//2
f 87//2 62//2 61//2 60//2
f 71//2 68//2 55//2 57//2
f 57//2 55//2 51//2 49//2
f 4//3 5//3 188//3 189//3
f 10//3 11//3 178//3 180//3
f 11//4 12//4 177//4 178//4
f 179//4 191//4 51//4 55//4
f 22//4 35//4 141//4 160//4
f 34//4 42//4 133//4 142//4
f 166//4 167//4 61//4 62//4
f 14//4 15//4 172//4 173//4
f 8//3 9//3 182//3 185//3
f 70//4 110//4 91//4 113//4
f 42//3 70//3 113//3 133//3
f 147//4 179//4 55//4 68//4
f 18//5 8//5 185//5 165//5
f 13//6 3//6 190//6 174//6
f 73//3 77//3 108//3 109//3
f 21//4 22//4 160//4 161//4
f 9//3 10//3 180//3 182//3
f 12//6 21//6 161//6 177//6
f 118//5 73//5 109//5 84//5
f 35//6 34//6 142//6 141//6
f 6//3 14//3 173//3 187//3
f 1//3 2//3 193//3 194//3
f 17//3 18//3 165//3 169//3
f 167//6 168//6 60//6 61//6
f 3//5 1//5 194//5 190//5
f 32//5 17//5 169//5 146//5
f 115//3 166//3 62//3 87//3
f 77//5 44//5 129//5 108//5
f 114//4 115//4 87//4 88//4
f 44//3 45//3 125//3 129//3
f 15//3 27//3 153//3 172//3
f 5//4 6//4 187//4 188//4
f 191//6 192//6 49//6 51//6
f 27//3 30//3 150//3 153//3
f 110//3 114//3 88//3 91//3
f 30//3 32//3 146//3 150//3
f 2//3 4//3 189//3 193//3
usemtl pixel_art_FFFFFFFF.005
f 13//1 23//1 24//1 7//1
f 37//1 36//1 38//1 29//1
f 38//1 47//1 93//1 50//1
f 93//1 96//1 145//1 97//1
f 117//1 120//1 119//1 118//1
f 118//1 119//1 128//1 122//1
f 126//1 127//1 131//1 130//1
f 145//1 143//1 147//1 149//1
f 111//1 164//1 168//1 115//1
f 181//1 184//1 183//1 176//1
f 183//1 196//1 195//1 192//1
f 174//2 186//2 158//2 159//2
f 138//2 151//2 137//2 139//2
f 137//2 123//2 104//2 124//2
f 104//2 99//2 69//2 100//2
f 86//2 84//2 83//2 82//2
f 84//2 80//2 76//2 83//2
f 79//2 75//2 74//2 78//2
f 69//2 66//2 68//2 71//2
f 90//2 87//2 60//2 63//2
f 54//2 56//2 53//2 52//2
f 53//2 49//2 48//2 46//2
f 196//5 183//5 53//5 46//5
f 119//6 120//6 82//6 83//6
f 192//4 195//4 48//4 49//4
f 117//3 118//3 84//3 86//3
f 128//6 119//6 83//6 76//6
f 120//5 117//5 86//5 82//5
f 131//6 127//6 78//6 74//6
f 23//5 13//5 174//5 159//5
f 168//6 164//6 63//6 60//6
f 184//5 181//5 54//5 52//5
f 183//6 184//6 52//6 53//6
f 195//6 196//6 46//6 48//6
usemtl pixel_art_F2E36DFF
f 7//1 24//1 16//1 6//1
f 18//1 19//1 33//1 20//1
f 24//1 25//1 37//1 16//1
f 16//1 37//1 29//1 15//1
f 19//1 41//1 34//1 33//1
f 45//1 81//1 85//1 36//1
f 77//1 122//1 126//1 81//1
f 81//1 126//1 130//1 85//1
f 85//1 130//1 92//1 47//1
f 102//1 103//1 112//1 67//1
f 67//1 112//1 111//1 110//1
f 92//1 140//1 170//1 96//1
f 170//1 176//1 175//1 143//1
f 176//1 183//1 192//1 175//1
f 186//2 187//2 171//2 158//2
f 165//2 162//2 144//2 163//2
f 158//2 171//2 138//2 157//2
f 171//2 172//2 151//2 138//2
f 163//2 144//2 142//2 134//2
f 125//2 139//2 106//2 107//2
f 108//2 107//2 79//2 80//2
f 107//2 106//2 75//2 79//2
f 106//2 124//2 105//2 75//2
f 95//2 116//2 89//2 94//2
f 116//2 91//2 90//2 89//2
f 105//2 100//2 59//2 72//2
f 59//2 71//2 57//2 56//2
f 56//2 57//2 49//2 53//2
usemtl pixel_art_FFF9C9FF
f 23//1 26//1 25//1 24//1
f 29//1 38//1 50//1 28//1
f 50//1 93//1 97//1 40//1
f 97//1 145//1 149//1 101//1
f 122//1 128//1 127//1 126//1
f 130//1 131//1 140//1 92//1
f 149//1 147//1 156//1 103//1
f 112//1 155//1 164//1 111//1
f 140//1 181//1 176//1 170//1
f 159//2 158//2 157//2 154//2
f 151//2 152//2 123//2 137//2
f 123//2 135//2 99//2 104//2
f 99//2 98//2 66//2 69//2
f 80//2 79//2 78//2 76//2
f 75//2 105//2 72//2 74//2
f 66//2 94//2 64//2 68//2
f 89//2 90//2 63//2 65//2
f 72//2 59//2 56//2 54//2
f 127//6 128//6 76//6 78//6
f 140//6 131//6 74//6 72//6
f 156//6 147//6 68//6 64//6
f 164//6 155//6 65//6 63//6
f 26//5 23//5 159//5 154//5
f 181//5 140//5 72//5 54//5
f 25//6 26//6 154//6 157//6
usemtl pixel_art_FFE694FF
f 32//1 31//1 41//1 19//1
f 25//1 45//1 36//1 37//1
f 28//1 50//1 40//1 39//1
f 39//1 40//1 58//1 31//1
f 31//1 58//1 43//1 41//1
f 36//1 85//1 47//1 38//1
f 40//1 97//1 101//1 58//1
f 58//1 101//1 102//1 43//1
f 43//1 102//1 67//1 42//1
f 47//1 92//1 96//1 93//1
f 101//1 149//1 103//1 102//1
f 96//1 170//1 143//1 145//1
f 103//1 156//1 155//1 112//1
f 146//2 163//2 134//2 148//2
f 157//2 138//2 139//2 125//2
f 152//2 136//2 135//2 123//2
f 136//2 148//2 121//2 135//2
f 148//2 134//2 132//2 121//2
f 139//2 137//2 124//2 106//2
f 135//2 121//2 98//2 99//2
f 121//2 132//2 95//2 98//2
f 132//2 133//2 116//2 95//2
f 124//2 104//2 100//2 105//2
f 98//2 95//2 94//2 66//2
f 100//2 69//2 71//2 59//2
f 94//2 89//2 65//2 64//2
f 45//5 25//5 157//5 125//5
f 155//6 156//6 64//6 65//6
