# Blender 3.3.1
# www.blender.org
mtllib hat_drill.mtl
o drill.png
v 5.000000 -1.500000 -1.000000
v 6.000000 -1.500000 -1.000000
v 7.000000 -1.500000 -1.000000
v 6.000000 -1.500000 -2.000000
v 8.000000 -1.500000 -1.000000
v 8.000000 -1.500000 -2.000000
v 9.000000 -1.500000 -1.000000
v 10.000000 -1.500000 -1.000000
v 11.000000 -1.500000 -1.000000
v 12.000000 -1.500000 -1.000000
v 13.000000 -1.500000 -1.000000
v 13.000000 -1.500000 -2.000000
v 12.000000 -1.500000 -2.000000
v 14.000000 -1.500000 -1.000000
v 15.000000 -1.500000 -1.000000
v 16.000000 -1.500000 -1.000000
v 17.000000 -1.500000 -1.000000
v 16.000000 -1.500000 -2.000000
v 4.000000 -1.500000 -2.000000
v 5.000000 -1.500000 -2.000000
v 4.000000 -1.500000 -3.000000
v 5.000000 -1.500000 -3.000000
v 7.000000 -1.500000 -2.000000
v 6.000000 -1.500000 -3.000000
v 9.000000 -1.500000 -2.000000
v 10.000000 -1.500000 -2.000000
v 11.000000 -1.500000 -2.000000
v 11.000000 -1.500000 -3.000000
v 12.000000 -1.500000 -3.000000
v 13.000000 -1.500000 -3.000000
v 14.000000 -1.500000 -3.000000
v 14.000000 -1.500000 -2.000000
v 15.000000 -1.500000 -2.000000
v 15.000000 -1.500000 -3.000000
v 17.000000 -1.500000 -2.000000
v 18.000000 -1.500000 -2.000000
v 18.000000 -1.500000 -3.000000
v 4.000000 -1.500000 -4.000000
v 6.000000 -1.500000 -4.000000
v 5.000000 -1.500000 -4.000000
v 7.000000 -1.500000 -3.000000
v 8.000000 -1.500000 -3.000000
v 7.000000 -1.500000 -4.000000
v 9.000000 -1.500000 -3.000000
v 9.000000 -1.500000 -4.000000
v 10.000000 -1.500000 -3.000000
v 10.000000 -1.500000 -4.000000
v 12.000000 -1.500000 -4.000000
v 13.000000 -1.500000 -4.000000
v 15.000000 -1.500000 -4.000000
v 16.000000 -1.500000 -3.000000
v 17.000000 -1.500000 -3.000000
v 6.000000 -1.500000 -5.000000
v 8.000000 -1.500000 -4.000000
v 9.000000 -1.500000 -5.000000
v 11.000000 -1.500000 -4.000000
v 11.000000 -1.500000 -5.000000
v 13.000000 -1.500000 -5.000000
v 14.000000 -1.500000 -4.000000
v 14.000000 -1.500000 -5.000000
v 16.000000 -1.500000 -4.000000
v 17.000000 -1.500000 -4.000000
v 5.000000 -1.500000 -5.000000
v 5.000000 -1.500000 -6.000000
v 7.000000 -1.500000 -5.000000
v 8.000000 -1.500000 -5.000000
v 8.000000 -1.500000 -6.000000
v 10.000000 -1.500000 -5.000000
v 10.000000 -1.500000 -6.000000
v 12.000000 -1.500000 -5.000000
v 12.000000 -1.500000 -6.000000
v 14.000000 -1.500000 -6.000000
v 15.000000 -1.500000 -5.000000
v 16.000000 -1.500000 -5.000000
v 16.000000 -1.500000 -6.000000
v 17.000000 -1.500000 -5.000000
v 17.000000 -1.500000 -6.000000
v 6.000000 -1.500000 -6.000000
v 7.000000 -1.500000 -6.000000
v 7.000000 -1.500000 -7.000000
v 8.000000 1.500000 -12.000000
v 7.000000 1.500000 -10.000000
v 13.000000 1.500000 -13.000000
v 17.000000 1.500000 -4.000000
v 11.000000 1.500000 -13.000000
v 8.000000 -1.500000 -7.000000
v 9.000000 -1.500000 -6.000000
v 13.000000 1.500000 -5.000000
v 13.000000 1.500000 -12.000000
v 12.000000 1.500000 -12.000000
v 9.000000 1.500000 -5.000000
v 7.000000 1.500000 -5.000000
v 6.000000 1.500000 -5.000000
v 13.000000 1.500000 -11.000000
v 11.000000 -1.500000 -6.000000
v 16.000000 1.500000 -4.000000
v 12.000000 -1.500000 -7.000000
v 12.000000 1.500000 -11.000000
v 15.000000 1.500000 -4.000000
v 10.000000 1.500000 -11.000000
v 13.000000 1.500000 -4.000000
v 9.000000 1.500000 -11.000000
v 13.000000 -1.500000 -6.000000
v 12.000000 1.500000 -4.000000
v 14.000000 -1.500000 -7.000000
v 13.000000 -1.500000 -7.000000
v 14.000000 1.500000 -10.000000
v 15.000000 -1.500000 -6.000000
v 8.000000 1.500000 -4.000000
v 11.000000 1.500000 -10.000000
v 10.000000 1.500000 -10.000000
v 4.000000 1.500000 -4.000000
v 16.000000 -1.500000 -7.000000
v 15.000000 -1.500000 -7.000000
v 6.000000 -1.500000 -7.000000
v 14.000000 1.500000 -9.000000
v 7.000000 -1.500000 -8.000000
v 6.000000 -1.500000 -8.000000
v 13.000000 1.500000 -9.000000
v 12.000000 1.500000 -9.000000
v 14.000000 1.500000 -3.000000
v 11.000000 1.500000 -9.000000
v 13.000000 1.500000 -3.000000
v 9.000000 -1.500000 -7.000000
v 10.000000 1.500000 -9.000000
v 12.000000 1.500000 -3.000000
v 9.000000 1.500000 -9.000000
v 10.000000 -1.500000 -7.000000
v 14.000000 1.500000 -8.000000
v 13.000000 1.500000 -8.000000
v 6.000000 1.500000 -3.000000
v 12.000000 1.500000 -8.000000
v 5.000000 1.500000 -3.000000
v 11.000000 1.500000 -8.000000
v 11.000000 -1.500000 -7.000000
v 16.000000 1.500000 -2.000000
v 12.000000 -1.500000 -8.000000
v 17.000000 1.500000 -1.000000
v 16.000000 1.500000 -1.000000
v 15.000000 1.500000 -6.000000
v 13.000000 -1.500000 -8.000000
v 14.000000 1.500000 -6.000000
v 11.000000 1.500000 -1.000000
v 12.000000 1.500000 -7.000000
v 11.000000 1.500000 -7.000000
v 11.000000 1.500000 -6.000000
v 7.000000 1.500000 -2.000000
v 10.000000 1.500000 -7.000000
v 6.000000 1.500000 -2.000000
v 9.000000 1.500000 -7.000000
v 9.000000 1.500000 -6.000000
v 7.000000 1.500000 -1.000000
v 16.000000 -1.500000 -8.000000
v 15.000000 -1.500000 -8.000000
v 8.000000 1.500000 -7.000000
v 8.000000 -1.500000 -8.000000
v 8.000000 -1.500000 -9.000000
v 7.000000 -1.500000 -9.000000
v 11.000000 1.500000 -15.000000
v 12.000000 1.500000 -15.000000
v 11.000000 1.500000 -14.000000
v 10.000000 1.500000 -12.000000
v 9.000000 -1.500000 -8.000000
v 10.000000 -1.500000 -8.000000
v 7.000000 1.500000 -9.000000
v 15.000000 1.500000 -8.000000
v 16.000000 1.500000 -8.000000
v 11.000000 -1.500000 -8.000000
v 7.000000 1.500000 -8.000000
v 15.000000 1.500000 -7.000000
v 16.000000 1.500000 -7.000000
v 14.000000 1.500000 -7.000000
v 5.000000 1.500000 -4.000000
v 6.000000 1.500000 -4.000000
v 7.000000 1.500000 -7.000000
v 17.000000 1.500000 -6.000000
v 13.000000 -1.500000 -9.000000
v 17.000000 1.500000 -5.000000
v 16.000000 1.500000 -6.000000
v 12.000000 1.500000 -6.000000
v 14.000000 -1.500000 -9.000000
v 12.000000 1.500000 -5.000000
v 14.000000 -1.500000 -8.000000
v 10.000000 1.500000 -14.000000
v 10.000000 1.500000 -13.000000
v 9.000000 1.500000 -13.000000
v 9.000000 1.500000 -12.000000
v 14.000000 1.500000 -5.000000
v 14.000000 1.500000 -4.000000
v 7.000000 -1.500000 -10.000000
v 11.000000 1.500000 -5.000000
v 9.000000 -1.500000 -9.000000
v 11.000000 1.500000 -4.000000
v 13.000000 1.500000 -10.000000
v 12.000000 1.500000 -10.000000
v 10.000000 -1.500000 -9.000000
v 8.000000 1.500000 -11.000000
v 9.000000 1.500000 -10.000000
v 8.000000 1.500000 -10.000000
v 11.000000 -1.500000 -9.000000
v 9.000000 1.500000 -4.000000
v 10.000000 -1.500000 -10.000000
v 9.000000 1.500000 -3.000000
v 18.000000 1.500000 -3.000000
v 15.000000 1.500000 -3.000000
v 10.000000 1.500000 -8.000000
v 12.000000 -1.500000 -9.000000
v 9.000000 1.500000 -8.000000
v 11.000000 1.500000 -3.000000
v 11.000000 1.500000 -2.000000
v 6.000000 1.500000 -8.000000
v 6.000000 1.500000 -7.000000
v 13.000000 1.500000 -2.000000
v 13.000000 1.500000 -7.000000
v 13.000000 1.500000 -6.000000
v 15.000000 -1.500000 -9.000000
v 15.000000 -1.500000 -10.000000
v 7.000000 1.500000 -6.000000
v 8.000000 -1.500000 -10.000000
v 9.000000 -1.500000 -10.000000
v 6.000000 1.500000 -6.000000
v 8.000000 -1.500000 -11.000000
v 16.000000 1.500000 -5.000000
v 15.000000 1.500000 -5.000000
v 10.000000 -1.500000 -11.000000
v 10.000000 1.500000 -6.000000
v 10.000000 1.500000 -5.000000
v 8.000000 1.500000 -6.000000
v 8.000000 1.500000 -5.000000
v 12.000000 1.500000 -14.000000
v 11.000000 -1.500000 -10.000000
v 12.000000 1.500000 -13.000000
v 5.000000 1.500000 -6.000000
v 5.000000 1.500000 -5.000000
v 12.000000 -1.500000 -10.000000
v 13.000000 -1.500000 -10.000000
v 14.000000 1.500000 -12.000000
v 14.000000 1.500000 -11.000000
v 11.000000 1.500000 -12.000000
v 14.000000 -1.500000 -10.000000
v 11.000000 1.500000 -11.000000
v 13.000000 -1.500000 -11.000000
v 17.000000 1.500000 -3.000000
v 16.000000 1.500000 -3.000000
v 15.000000 1.500000 -10.000000
v 8.000000 -1.500000 -12.000000
v 9.000000 -1.500000 -11.000000
v 15.000000 1.500000 -9.000000
v 10.000000 1.500000 -4.000000
v 10.000000 1.500000 -3.000000
v 7.000000 1.500000 -4.000000
v 11.000000 -1.500000 -11.000000
v 11.000000 -1.500000 -12.000000
v 10.000000 -1.500000 -12.000000
v 8.000000 1.500000 -3.000000
v 7.000000 1.500000 -3.000000
v 12.000000 -1.500000 -12.000000
v 18.000000 1.500000 -2.000000
v 12.000000 -1.500000 -11.000000
v 17.000000 1.500000 -2.000000
v 13.000000 -1.500000 -12.000000
v 15.000000 1.500000 -2.000000
v 14.000000 1.500000 -2.000000
v 14.000000 -1.500000 -11.000000
v 14.000000 -1.500000 -12.000000
v 8.000000 1.500000 -9.000000
v 9.000000 -1.500000 -12.000000
v 8.000000 1.500000 -8.000000
v 10.000000 1.500000 -2.000000
v 9.000000 -1.500000 -13.000000
v 9.000000 1.500000 -2.000000
v 4.000000 1.500000 -3.000000
v 11.000000 -1.500000 -13.000000
v 5.000000 1.500000 -2.000000
v 4.000000 1.500000 -2.000000
v 15.000000 1.500000 -1.000000
v 14.000000 1.500000 -1.000000
v 12.000000 1.500000 -2.000000
v 13.000000 1.500000 -1.000000
v 12.000000 1.500000 -1.000000
v 13.000000 -1.500000 -13.000000
v 10.000000 1.500000 -1.000000
v 10.000000 -1.500000 -13.000000
v 9.000000 1.500000 -1.000000
v 8.000000 1.500000 -2.000000
v 10.000000 -1.500000 -14.000000
v 8.000000 1.500000 -1.000000
v 12.000000 -1.500000 -13.000000
v 12.000000 -1.500000 -14.000000
v 11.000000 -1.500000 -14.000000
v 6.000000 1.500000 -1.000000
v 5.000000 1.500000 -1.000000
v 12.000000 -1.500000 -15.000000
v 11.000000 -1.500000 -15.000000
vn -0.0000 -1.0000 -0.0000
vn -0.0000 1.0000 -0.0000
vn -0.0000 -0.0000 -1.0000
vn -1.0000 -0.0000 -0.0000
vn 1.0000 -0.0000 -0.0000
vn -0.0000 -0.0000 1.0000
s 0
usemtl pixel_art_414E6AFF
f 1//1 20//1 4//1 2//1
f 2//1 4//1 23//1 3//1
f 3//1 23//1 6//1 5//1
f 5//1 6//1 25//1 7//1
f 7//1 25//1 26//1 8//1
f 8//1 26//1 27//1 9//1
f 9//1 27//1 13//1 10//1
f 10//1 13//1 12//1 11//1
f 11//1 12//1 32//1 14//1
f 14//1 32//1 33//1 15//1
f 15//1 33//1 18//1 16//1
f 16//1 18//1 35//1 17//1
f 35//1 52//1 37//1 36//1
f 44//1 45//1 47//1 46//1
f 46//1 47//1 56//1 28//1
f 29//1 48//1 49//1 30//1
f 31//1 59//1 50//1 34//1
f 34//1 50//1 61//1 51//1
f 51//1 61//1 62//1 52//1
f 59//1 60//1 73//1 50//1
f 61//1 74//1 76//1 62//1
f 74//1 75//1 77//1 76//1
f 108//1 114//1 113//1 75//1
f 114//1 154//1 153//1 113//1
f 183//1 181//1 216//1 154//1
f 181//1 240//1 217//1 216//1
f 236//1 242//1 264//1 240//1
f 292//2 291//2 149//2 274//2
f 291//2 152//2 147//2 149//2
f 152//2 287//2 285//2 147//2
f 287//2 284//2 271//2 285//2
f 284//2 282//2 269//2 271//2
f 282//2 143//2 210//2 269//2
f 143//2 280//2 278//2 210//2
f 280//2 279//2 213//2 278//2
f 279//2 277//2 263//2 213//2
f 277//2 276//2 262//2 263//2
f 276//2 139//2 136//2 262//2
f 139//2 138//2 260//2 136//2
f 260//2 258//2 204//2 243//2
f 203//2 250//2 249//2 201//2
f 250//2 209//2 193//2 249//2
f 126//2 123//2 101//2 104//2
f 121//2 205//2 99//2 189//2
f 205//2 244//2 96//2 99//2
f 244//2 243//2 84//2 96//2
f 189//2 99//2 224//2 188//2
f 96//2 84//2 178//2 223//2
f 223//2 178//2 176//2 179//2
f 140//2 179//2 171//2 170//2
f 170//2 171//2 167//2 166//2
f 129//2 166//2 248//2 116//2
f 116//2 248//2 245//2 107//2
f 194//2 107//2 238//2 94//2
f 37//3 52//3 243//3 204//3
f 153//3 154//3 166//3 167//3
f 113//5 153//5 167//5 171//5
f 11//6 14//6 277//6 279//6
f 240//5 264//5 238//5 107//5
f 77//3 75//3 179//3 176//3
f 75//5 113//5 171//5 179//5
f 10//6 11//6 279//6 280//6
f 217//3 240//3 107//3 245//3
f 36//5 37//5 204//5 258//5
f 15//6 16//6 139//6 276//6
f 35//6 36//6 258//6 260//6
f 216//5 217//5 245//5 248//5
f 16//6 17//6 138//6 139//6
f 1//6 2//6 291//6 292//6
f 52//5 62//5 84//5 243//5
f 14//6 15//6 276//6 277//6
f 17//5 35//5 260//5 138//5
f 20//4 1//4 292//4 274//4
f 2//6 3//6 152//6 291//6
f 3//6 5//6 287//6 152//6
f 5//6 7//6 284//6 287//6
f 154//5 216//5 248//5 166//5
f 76//5 77//5 176//5 178//5
f 7//6 8//6 282//6 284//6
f 62//5 76//5 178//5 84//5
f 8//6 9//6 143//6 282//6
f 9//6 10//6 280//6 143//6
usemtl pixel_art_7186B3FF
f 19//1 21//1 22//1 20//1
f 22//1 40//1 39//1 24//1
f 24//1 39//1 43//1 41//1
f 41//1 43//1 54//1 42//1
f 42//1 54//1 45//1 44//1
f 28//1 56//1 48//1 29//1
f 30//1 49//1 59//1 31//1
f 45//1 55//1 68//1 47//1
f 66//1 67//1 87//1 55//1
f 58//1 103//1 72//1 60//1
f 79//1 80//1 86//1 67//1
f 71//1 97//1 106//1 103//1
f 135//1 168//1 137//1 97//1
f 164//1 196//1 200//1 168//1
f 192//1 220//1 202//1 196//1
f 235//1 259//1 242//1 236//1
f 252//1 253//1 257//1 259//1
f 242//1 261//1 265//1 264//1
f 257//1 288//1 281//1 261//1
f 273//1 290//1 289//1 288//1
f 275//2 274//2 133//2 272//2
f 133//2 131//2 174//2 173//2
f 131//2 256//2 251//2 174//2
f 256//2 255//2 109//2 251//2
f 255//2 203//2 201//2 109//2
f 209//2 126//2 104//2 193//2
f 123//2 121//2 189//2 101//2
f 201//2 249//2 227//2 91//2
f 229//2 91//2 151//2 228//2
f 88//2 188//2 142//2 215//2
f 218//2 228//2 155//2 175//2
f 180//2 215//2 214//2 144//2
f 145//2 144//2 132//2 134//2
f 206//2 134//2 122//2 125//2
f 127//2 125//2 111//2 198//2
f 195//2 194//2 94//2 98//2
f 241//2 98//2 90//2 239//2
f 94//2 238//2 237//2 89//2
f 90//2 89//2 83//2 232//2
f 85//2 232//2 230//2 161//2
f 261//5 281//5 83//5 89//5
f 265//3 261//3 89//3 237//3
f 281//3 288//3 232//3 83//3
f 288//5 289//5 230//5 232//5
f 264//5 265//5 237//5 238//5
f 19//6 20//6 274//6 275//6
f 21//4 19//4 275//4 272//4
usemtl pixel_art_EAF1FFFF
f 20//1 22//1 24//1 4//1
f 4//1 24//1 41//1 23//1
f 39//1 53//1 65//1 43//1
f 47//1 68//1 57//1 56//1
f 53//1 78//1 79//1 65//1
f 55//1 87//1 69//1 68//1
f 67//1 86//1 124//1 87//1
f 103//1 106//1 105//1 72//1
f 97//1 137//1 141//1 106//1
f 168//1 200//1 207//1 137//1
f 196//1 202//1 231//1 200//1
f 220//1 247//1 225//1 202//1
f 274//2 149//2 131//2 133//2
f 149//2 147//2 256//2 131//2
f 174//2 251//2 92//2 93//2
f 249//2 193//2 191//2 227//2
f 93//2 92//2 218//2 221//2
f 91//2 227//2 226//2 151//2
f 228//2 151//2 150//2 155//2
f 215//2 142//2 172//2 214//2
f 144//2 214//2 130//2 132//2
f 134//2 132//2 120//2 122//2
f 125//2 122//2 110//2 111//2
f 198//2 111//2 100//2 102//2
usemtl pixel_art_D0DDF9FF
f 23//1 41//1 42//1 6//1
f 6//1 42//1 44//1 25//1
f 26//1 46//1 28//1 27//1
f 13//1 29//1 30//1 12//1
f 40//1 63//1 53//1 39//1
f 43//1 65//1 66//1 54//1
f 56//1 57//1 70//1 48//1
f 48//1 70//1 58//1 49//1
f 68//1 69//1 95//1 57//1
f 57//1 95//1 71//1 70//1
f 60//1 72//1 108//1 73//1
f 78//1 115//1 80//1 79//1
f 87//1 124//1 128//1 69//1
f 69//1 128//1 135//1 95//1
f 72//1 105//1 114//1 108//1
f 86//1 156//1 163//1 124//1
f 124//1 163//1 164//1 128//1
f 106//1 141//1 183//1 105//1
f 117//1 158//1 157//1 156//1
f 156//1 157//1 192//1 163//1
f 137//1 207//1 177//1 141//1
f 141//1 177//1 181//1 183//1
f 200//1 231//1 235//1 207//1
f 207//1 235//1 236//1 177//1
f 219//1 222//1 247//1 220//1
f 202//1 225//1 252//1 231//1
f 247//1 267//1 254//1 225//1
f 254//1 283//1 273//1 253//1
f 147//2 285//2 255//2 256//2
f 285//2 271//2 203//2 255//2
f 269//2 210//2 209//2 250//2
f 278//2 213//2 123//2 126//2
f 173//2 174//2 93//2 234//2
f 251//2 109//2 229//2 92//2
f 193//2 104//2 182//2 191//2
f 104//2 101//2 88//2 182//2
f 227//2 191//2 146//2 226//2
f 191//2 182//2 180//2 146//2
f 188//2 224//2 140//2 142//2
f 221//2 218//2 175//2 212//2
f 151//2 226//2 148//2 150//2
f 226//2 146//2 145//2 148//2
f 142//2 140//2 170//2 172//2
f 155//2 150//2 208//2 268//2
f 150//2 148//2 206//2 208//2
f 214//2 172//2 129//2 130//2
f 169//2 268//2 266//2 165//2
f 268//2 208//2 127//2 266//2
f 132//2 130//2 119//2 120//2
f 130//2 129//2 116//2 119//2
f 122//2 120//2 195//2 110//2
f 120//2 119//2 194//2 195//2
f 199//2 198//2 102//2 197//2
f 111//2 110//2 241//2 100//2
f 102//2 100//2 162//2 187//2
f 162//2 239//2 85//2 185//2
f 63//4 40//4 173//4 234//4
f 222//4 219//4 199//4 197//4
f 158//4 117//4 169//4 165//4
f 115//4 78//4 221//4 212//4
usemtl pixel_art_BFBEEFFF
f 25//1 44//1 46//1 26//1
f 27//1 28//1 29//1 13//1
f 12//1 30//1 31//1 32//1
f 32//1 31//1 34//1 33//1
f 33//1 34//1 51//1 18//1
f 18//1 51//1 52//1 35//1
f 54//1 66//1 55//1 45//1
f 49//1 58//1 60//1 59//1
f 50//1 73//1 74//1 61//1
f 65//1 79//1 67//1 66//1
f 70//1 71//1 103//1 58//1
f 73//1 108//1 75//1 74//1
f 95//1 135//1 97//1 71//1
f 80//1 117//1 156//1 86//1
f 128//1 164//1 168//1 135//1
f 105//1 183//1 154//1 114//1
f 163//1 192//1 196//1 164//1
f 157//1 219//1 220//1 192//1
f 177//1 236//1 240//1 181//1
f 231//1 252//1 259//1 235//1
f 225//1 254//1 253//1 252//1
f 259//1 257//1 261//1 242//1
f 253//1 273//1 288//1 257//1
f 271//2 269//2 250//2 203//2
f 210//2 278//2 126//2 209//2
f 213//2 263//2 121//2 123//2
f 263//2 262//2 205//2 121//2
f 262//2 136//2 244//2 205//2
f 136//2 260//2 243//2 244//2
f 109//2 201//2 91//2 229//2
f 101//2 189//2 188//2 88//2
f 99//2 96//2 223//2 224//2
f 92//2 229//2 228//2 218//2
f 182//2 88//2 215//2 180//2
f 224//2 223//2 179//2 140//2
f 146//2 180//2 144//2 145//2
f 175//2 155//2 268//2 169//2
f 148//2 145//2 134//2 206//2
f 172//2 170//2 166//2 129//2
f 208//2 206//2 125//2 127//2
f 266//2 127//2 198//2 199//2
f 119//2 116//2 107//2 194//2
f 110//2 195//2 98//2 241//2
f 100//2 241//2 239//2 162//2
f 98//2 94//2 89//2 90//2
f 239//2 90//2 232//2 85//2
usemtl pixel_art_FFFFFFFF.002
f 21//1 38//1 40//1 22//1
f 63//1 64//1 78//1 53//1
f 115//1 118//1 117//1 80//1
f 158//1 190//1 219//1 157//1
f 222//1 246//1 267//1 247//1
f 267//1 270//1 283//1 254//1
f 283//1 286//1 290//1 273//1
f 290//1 294//1 293//1 289//1
f 272//2 133//2 173//2 112//2
f 234//2 93//2 221//2 233//2
f 212//2 175//2 169//2 211//2
f 165//2 266//2 199//2 82//2
f 197//2 102//2 187//2 81//2
f 187//2 162//2 185//2 186//2
f 185//2 85//2 161//2 184//2
f 161//2 230//2 160//2 159//2
f 40//3 38//3 112//3 173//3
f 78//3 64//3 233//3 221//3
f 219//3 190//3 82//3 199//3
f 267//3 246//3 81//3 187//3
f 286//4 283//4 185//4 184//4
f 283//3 270//3 186//3 185//3
f 64//4 63//4 234//4 233//4
f 289//5 293//5 160//5 230//5
f 293//3 294//3 159//3 160//3
f 290//3 286//3 184//3 161//3
f 118//4 115//4 212//4 211//4
f 246//4 222//4 197//4 81//4
f 117//3 118//3 211//3 169//3
f 270//4 267//4 187//4 186//4
f 38//4 21//4 272//4 112//4
f 294//4 290//4 161//4 159//4
f 190//4 158//4 165//4 82//4
