# Blender 3.3.1
# www.blender.org
mtllib hat_fish1.mtl
o fish1.png
v 4.000000 -1.500000 -1.000000
v 4.000000 -1.500000 -2.000000
v 5.000000 -1.500000 -1.000000
v 6.000000 -1.500000 -1.000000
v 7.000000 -1.500000 -1.000000
v 8.000000 -1.500000 -1.000000
v 9.000000 -1.500000 -1.000000
v 10.000000 -1.500000 -1.000000
v 18.000000 1.500000 -1.000000
v 10.000000 1.500000 -11.000000
v 11.000000 -1.500000 -2.000000
v 19.000000 1.500000 -3.000000
v 11.000000 -1.500000 -1.000000
v 12.000000 -1.500000 -1.000000
v 10.000000 1.500000 -10.000000
v 10.000000 1.500000 -15.000000
v 4.000000 1.500000 -1.000000
v 5.000000 1.500000 -1.000000
v 13.000000 -1.500000 -2.000000
v 12.000000 -1.500000 -2.000000
v 13.000000 -1.500000 -1.000000
v 14.000000 -1.500000 -1.000000
v 6.000000 1.500000 -1.000000
v 7.000000 1.500000 -1.000000
v 8.000000 1.500000 -1.000000
v 15.000000 -1.500000 -1.000000
v 15.000000 -1.500000 -2.000000
v 9.000000 1.500000 -1.000000
v 10.000000 1.500000 -1.000000
v 16.000000 -1.500000 -1.000000
v 11.000000 1.500000 -1.000000
v 12.000000 1.500000 -1.000000
v 13.000000 1.500000 -1.000000
v 14.000000 1.500000 -1.000000
v 15.000000 1.500000 -1.000000
v 16.000000 -1.500000 -2.000000
v 17.000000 -1.500000 -1.000000
v 18.000000 -1.500000 -1.000000
v 18.000000 -1.500000 -2.000000
v 16.000000 1.500000 -1.000000
v 17.000000 1.500000 -1.000000
v 4.000000 1.500000 -2.000000
v 5.000000 1.500000 -2.000000
v 4.000000 -1.500000 -3.000000
v 5.000000 -1.500000 -2.000000
v 7.000000 1.500000 -2.000000
v 6.000000 1.500000 -2.000000
v 5.000000 -1.500000 -3.000000
v 6.000000 -1.500000 -2.000000
v 9.000000 1.500000 -2.000000
v 8.000000 1.500000 -2.000000
v 10.000000 1.500000 -2.000000
v 7.000000 -1.500000 -2.000000
v 8.000000 -1.500000 -2.000000
v 11.000000 1.500000 -2.000000
v 7.000000 -1.500000 -3.000000
v 12.000000 1.500000 -2.000000
v 13.000000 1.500000 -2.000000
v 10.000000 1.500000 -9.000000
v 8.000000 -1.500000 -3.000000
v 9.000000 -1.500000 -2.000000
v 10.000000 -1.500000 -2.000000
v 10.000000 -1.500000 -3.000000
v 9.000000 -1.500000 -3.000000
v 14.000000 1.500000 -2.000000
v 15.000000 1.500000 -2.000000
v 16.000000 1.500000 -2.000000
v 17.000000 1.500000 -2.000000
v 19.000000 1.500000 -2.000000
v 18.000000 1.500000 -2.000000
v 6.000000 1.500000 -3.000000
v 7.000000 1.500000 -3.000000
v 8.000000 1.500000 -3.000000
v 9.000000 1.500000 -3.000000
v 10.000000 1.500000 -3.000000
v 12.000000 -1.500000 -3.000000
v 11.000000 1.500000 -3.000000
v 14.000000 -1.500000 -2.000000
v 12.000000 1.500000 -3.000000
v 13.000000 -1.500000 -3.000000
v 13.000000 1.500000 -3.000000
v 14.000000 1.500000 -3.000000
v 15.000000 1.500000 -3.000000
v 16.000000 1.500000 -3.000000
v 17.000000 1.500000 -3.000000
v 5.000000 1.500000 -4.000000
v 6.000000 1.500000 -4.000000
v 7.000000 1.500000 -4.000000
v 8.000000 1.500000 -4.000000
v 9.000000 1.500000 -4.000000
v 10.000000 1.500000 -4.000000
v 11.000000 1.500000 -4.000000
v 17.000000 -1.500000 -2.000000
v 12.000000 1.500000 -4.000000
v 13.000000 1.500000 -4.000000
v 14.000000 1.500000 -4.000000
v 15.000000 1.500000 -4.000000
v 19.000000 -1.500000 -2.000000
v 19.000000 -1.500000 -3.000000
v 18.000000 -1.500000 -3.000000
v 16.000000 1.500000 -4.000000
v 6.000000 -1.500000 -3.000000
v 17.000000 1.500000 -4.000000
v 5.000000 -1.500000 -4.000000
v 7.000000 1.500000 -5.000000
v 8.000000 1.500000 -5.000000
v 9.000000 1.500000 -5.000000
v 10.000000 1.500000 -5.000000
v 11.000000 1.500000 -5.000000
v 12.000000 1.500000 -5.000000
v 13.000000 1.500000 -5.000000
v 14.000000 1.500000 -5.000000
v 16.000000 1.500000 -5.000000
v 15.000000 1.500000 -5.000000
v 6.000000 1.500000 -6.000000
v 7.000000 1.500000 -6.000000
v 9.000000 1.500000 -6.000000
v 8.000000 1.500000 -6.000000
v 10.000000 1.500000 -6.000000
v 11.000000 1.500000 -6.000000
v 12.000000 1.500000 -6.000000
v 11.000000 -1.500000 -3.000000
v 13.000000 1.500000 -6.000000
v 14.000000 1.500000 -6.000000
v 15.000000 1.500000 -6.000000
v 17.000000 1.500000 -6.000000
v 16.000000 1.500000 -6.000000
v 7.000000 1.500000 -8.000000
v 8.000000 1.500000 -7.000000
v 9.000000 1.500000 -7.000000
v 10.000000 1.500000 -7.000000
v 12.000000 -1.500000 -4.000000
v 11.000000 1.500000 -7.000000
v 14.000000 -1.500000 -3.000000
v 12.000000 1.500000 -7.000000
v 13.000000 1.500000 -7.000000
v 14.000000 1.500000 -7.000000
v 15.000000 -1.500000 -3.000000
v 15.000000 1.500000 -7.000000
v 9.000000 1.500000 -8.000000
v 8.000000 1.500000 -8.000000
v 12.000000 1.500000 -8.000000
v 16.000000 -1.500000 -4.000000
v 14.000000 1.500000 -8.000000
v 16.000000 -1.500000 -3.000000
v 17.000000 -1.500000 -3.000000
v 17.000000 -1.500000 -4.000000
v 13.000000 1.500000 -8.000000
v 16.000000 1.500000 -8.000000
v 15.000000 1.500000 -8.000000
v 9.000000 1.500000 -9.000000
v 11.000000 1.500000 -9.000000
v 12.000000 1.500000 -9.000000
v 6.000000 -1.500000 -4.000000
v 13.000000 1.500000 -9.000000
v 5.000000 -1.500000 -5.000000
v 14.000000 1.500000 -9.000000
v 7.000000 -1.500000 -4.000000
v 12.000000 1.500000 -10.000000
v 11.000000 1.500000 -10.000000
v 13.000000 1.500000 -10.000000
v 15.000000 1.500000 -10.000000
v 8.000000 -1.500000 -5.000000
v 7.000000 -1.500000 -5.000000
v 8.000000 -1.500000 -4.000000
v 9.000000 -1.500000 -4.000000
v 14.000000 1.500000 -10.000000
v 11.000000 1.500000 -11.000000
v 18.000000 1.500000 -4.000000
v 10.000000 -1.500000 -4.000000
v 18.000000 1.500000 -3.000000
v 12.000000 1.500000 -11.000000
v 13.000000 1.500000 -11.000000
v 10.000000 1.500000 -12.000000
v 11.000000 1.500000 -12.000000
v 12.000000 1.500000 -12.000000
v 11.000000 -1.500000 -4.000000
v 14.000000 1.500000 -12.000000
v 13.000000 1.500000 -12.000000
v 9.000000 1.500000 -13.000000
v 10.000000 1.500000 -13.000000
v 11.000000 1.500000 -13.000000
v 12.000000 1.500000 -13.000000
v 11.000000 1.500000 -14.000000
v 13.000000 -1.500000 -4.000000
v 4.000000 1.500000 -3.000000
v 14.000000 -1.500000 -5.000000
v 13.000000 -1.500000 -5.000000
v 14.000000 -1.500000 -4.000000
v 5.000000 1.500000 -3.000000
v 5.000000 1.500000 -5.000000
v 6.000000 1.500000 -5.000000
v 15.000000 -1.500000 -4.000000
v 17.000000 1.500000 -5.000000
v 18.000000 1.500000 -5.000000
v 6.000000 1.500000 -7.000000
v 7.000000 1.500000 -7.000000
v 16.000000 1.500000 -7.000000
v 17.000000 1.500000 -7.000000
v 10.000000 1.500000 -8.000000
v 11.000000 1.500000 -8.000000
v 18.000000 -1.500000 -4.000000
v 18.000000 -1.500000 -5.000000
v 7.000000 1.500000 -9.000000
v 6.000000 -1.500000 -5.000000
v 8.000000 1.500000 -9.000000
v 15.000000 1.500000 -9.000000
v 6.000000 -1.500000 -6.000000
v 16.000000 1.500000 -9.000000
v 8.000000 1.500000 -10.000000
v 8.000000 -1.500000 -6.000000
v 9.000000 1.500000 -10.000000
v 14.000000 1.500000 -11.000000
v 15.000000 1.500000 -11.000000
v 13.000000 1.500000 -13.000000
v 14.000000 1.500000 -13.000000
v 9.000000 -1.500000 -5.000000
v 10.000000 -1.500000 -5.000000
v 9.000000 1.500000 -14.000000
v 10.000000 1.500000 -14.000000
v 12.000000 1.500000 -14.000000
v 11.000000 -1.500000 -5.000000
v 11.000000 -1.500000 -6.000000
v 13.000000 1.500000 -14.000000
v 11.000000 1.500000 -15.000000
v 12.000000 1.500000 -15.000000
v 6.000000 -1.500000 -7.000000
v 12.000000 -1.500000 -15.000000
v 12.000000 -1.500000 -5.000000
v 10.000000 -1.500000 -13.000000
v 14.000000 -1.500000 -13.000000
v 14.000000 -1.500000 -12.000000
v 5.000000 -1.500000 -5.000000
v 14.000000 -1.500000 -6.000000
v 15.000000 -1.500000 -5.000000
v 14.000000 -1.500000 -11.000000
v 15.000000 -1.500000 -6.000000
v 16.000000 -1.500000 -5.000000
v 17.000000 -1.500000 -5.000000
v 7.000000 -1.500000 -6.000000
v 6.000000 -1.500000 -7.000000
v 5.000000 -1.500000 -4.000000
v 15.000000 -1.500000 -9.000000
v 9.000000 -1.500000 -6.000000
v 10.000000 -1.500000 -6.000000
v 11.000000 -1.500000 -8.000000
v 4.000000 -1.500000 -3.000000
v 12.000000 -1.500000 -7.000000
v 12.000000 -1.500000 -6.000000
v 16.000000 -1.500000 -7.000000
v 16.000000 -1.500000 -1.000000
v 13.000000 -1.500000 -6.000000
v 14.000000 -1.500000 -7.000000
v 16.000000 -1.500000 -6.000000
v 17.000000 -1.500000 -6.000000
v 17.000000 -1.500000 -7.000000
v 7.000000 -1.500000 -7.000000
v 8.000000 -1.500000 -7.000000
v 8.000000 -1.500000 -1.000000
v 9.000000 -1.500000 -7.000000
v 7.000000 -1.500000 -1.000000
v 11.000000 -1.500000 -15.000000
v 10.000000 -1.500000 -7.000000
v 18.000000 -1.500000 -3.000000
v 11.000000 -1.500000 -7.000000
v 18.000000 -1.500000 -5.000000
v 13.000000 -1.500000 -8.000000
v 18.000000 -1.500000 -4.000000
v 13.000000 -1.500000 -7.000000
v 10.000000 -1.500000 -15.000000
v 10.000000 -1.500000 -14.000000
v 9.000000 -1.500000 -14.000000
v 9.000000 -1.500000 -13.000000
v 15.000000 -1.500000 -7.000000
v 10.000000 -1.500000 -12.000000
v 11.000000 -1.500000 -11.000000
v 16.000000 -1.500000 -7.000000
v 10.000000 -1.500000 -11.000000
v 7.000000 -1.500000 -8.000000
v 8.000000 -1.500000 -8.000000
v 11.000000 -1.500000 -10.000000
v 7.000000 -1.500000 -9.000000
v 11.000000 -1.500000 -9.000000
v 9.000000 -1.500000 -10.000000
v 8.000000 -1.500000 -10.000000
v 9.000000 -1.500000 -8.000000
v 10.000000 -1.500000 -8.000000
v 8.000000 -1.500000 -9.000000
v 11.000000 -1.500000 -8.000000
v 19.000000 -1.500000 -3.000000
v 19.000000 -1.500000 -2.000000
v 12.000000 -1.500000 -8.000000
v 12.000000 -1.500000 -9.000000
v 10.000000 -1.500000 -8.000000
v 7.000000 -1.500000 -9.000000
v 14.000000 -1.500000 -8.000000
v 15.000000 -1.500000 -8.000000
v 14.000000 -1.500000 -9.000000
v 7.000000 -1.500000 -8.000000
v 16.000000 -1.500000 -8.000000
v 16.000000 -1.500000 -9.000000
v 8.000000 -1.500000 -9.000000
v 18.000000 -1.500000 -2.000000
v 8.000000 -1.500000 -10.000000
v 9.000000 -1.500000 -9.000000
v 10.000000 -1.500000 -9.000000
v 10.000000 -1.500000 -10.000000
v 9.000000 -1.500000 -10.000000
v 11.000000 -1.500000 -9.000000
v 7.000000 -1.500000 -7.000000
v 11.000000 -1.500000 -10.000000
v 15.000000 -1.500000 -1.000000
v 17.000000 -1.500000 -5.000000
v 13.000000 -1.500000 -9.000000
v 15.000000 -1.500000 -9.000000
v 14.000000 -1.500000 -10.000000
v 6.000000 -1.500000 -6.000000
v 6.000000 -1.500000 -5.000000
v 12.000000 -1.500000 -11.000000
v 13.000000 -1.500000 -14.000000
v 12.000000 -1.500000 -10.000000
v 13.000000 -1.500000 -10.000000
v 13.000000 -1.500000 -11.000000
v 13.000000 -1.500000 -13.000000
v 14.000000 -1.500000 -11.000000
v 12.000000 -1.500000 -14.000000
v 15.000000 -1.500000 -10.000000
v 15.000000 -1.500000 -11.000000
v 10.000000 -1.500000 -11.000000
v 11.000000 -1.500000 -11.000000
v 10.000000 -1.500000 -12.000000
v 15.000000 -1.500000 -11.000000
v 15.000000 -1.500000 -10.000000
v 10.000000 -1.500000 -10.000000
v 10.000000 -1.500000 -9.000000
v 14.000000 -1.500000 -12.000000
v 16.000000 -1.500000 -9.000000
v 16.000000 -1.500000 -8.000000
v 10.000000 -1.500000 -13.000000
v 11.000000 -1.500000 -12.000000
v 12.000000 -1.500000 -12.000000
v 5.000000 -1.500000 -3.000000
v 13.000000 -1.500000 -12.000000
v 18.000000 -1.500000 -1.000000
v 14.000000 -1.500000 -13.000000
v 17.000000 -1.500000 -1.000000
v 9.000000 -1.500000 -13.000000
v 17.000000 -1.500000 -7.000000
v 17.000000 -1.500000 -6.000000
v 9.000000 -1.500000 -14.000000
v 14.000000 -1.500000 -1.000000
v 11.000000 -1.500000 -13.000000
v 11.000000 -1.500000 -14.000000
v 13.000000 -1.500000 -1.000000
v 12.000000 -1.500000 -1.000000
v 12.000000 -1.500000 -13.000000
v 12.000000 -1.500000 -14.000000
v 11.000000 -1.500000 -1.000000
v 10.000000 -1.500000 -1.000000
v 13.000000 -1.500000 -13.000000
v 13.000000 -1.500000 -14.000000
v 9.000000 -1.500000 -1.000000
v 10.000000 -1.500000 -14.000000
v 6.000000 -1.500000 -1.000000
v 11.000000 -1.500000 -15.000000
v 10.000000 -1.500000 -15.000000
v 5.000000 -1.500000 -1.000000
v 4.000000 -1.500000 -2.000000
v 12.000000 -1.500000 -15.000000
v 4.000000 -1.500000 -1.000000
vn -0.0000 -1.0000 -0.0000
vn -1.0000 -0.0000 -0.0000
vn 1.0000 -0.0000 -0.0000
vn -0.0000 -0.0000 1.0000
vn -0.0000 -0.0000 -1.0000
vn -0.0000 1.0000 -0.0000
s 0
usemtl pixel_art_186B9FFF
f 1//1 2//1 45//1 3//1
f 3//1 45//1 49//1 4//1
f 4//1 49//1 53//1 5//1
f 5//1 53//1 54//1 6//1
f 6//1 54//1 61//1 7//1
f 7//1 61//1 62//1 8//1
f 8//1 62//1 11//1 13//1
f 13//1 11//1 20//1 14//1
f 14//1 20//1 19//1 21//1
f 21//1 19//1 78//1 22//1
f 22//1 78//1 27//1 26//1
f 26//1 27//1 36//1 30//1
f 30//1 36//1 93//1 37//1
f 37//1 93//1 39//1 38//1
f 39//1 100//1 99//1 98//1
f 48//1 104//1 154//1 102//1
f 102//1 154//1 158//1 56//1
f 56//1 158//1 165//1 60//1
f 60//1 165//1 166//1 64//1
f 64//1 166//1 170//1 63//1
f 63//1 170//1 177//1 122//1
f 122//1 177//1 132//1 76//1
f 76//1 132//1 185//1 80//1
f 80//1 185//1 189//1 134//1
f 134//1 189//1 193//1 138//1
f 138//1 193//1 143//1 145//1
f 145//1 143//1 147//1 146//1
f 146//1 147//1 202//1 100//1
f 147//1 239//1 203//1 202//1
f 205//1 208//1 240//1 164//1
f 188//1 252//1 234//1 187//1
f 187//1 234//1 237//1 235//1
f 238//1 254//1 255//1 239//1
f 252//1 269//1 253//1 234//1
f 254//1 277//1 256//1 255//1
f 257//1 279//1 280//1 258//1
f 263//1 287//1 289//1 265//1
f 274//1 297//1 300//1 277//1
f 286//1 305//1 306//1 287//1
f 289//1 309//1 293//1 292//1
f 297//1 315//1 301//1 300//1
f 305//1 308//1 307//1 306//1
f 309//1 311//1 321//1 293//1
f 298//1 316//1 327//1 315//1
f 311//1 330//1 319//1 321//1
f 316//1 325//1 328//1 327//1
f 329//1 331//1 340//1 330//1
f 323//1 343//1 336//1 325//1
f 343//1 360//1 345//1 336//1
f 356//1 357//1 361//1 360//1
f 275//2 278//2 10//2 174//2
f 243//3 333//3 162//3 207//3
f 324//3 320//3 224//3 215//3
f 359//4 358//4 31//4 29//4
f 268//3 266//3 195//3 169//3
f 317//2 318//2 192//2 115//2
f 368//2 370//2 17//2 42//2
f 290//5 264//5 171//5 12//5
f 266//5 313//5 194//5 195//5
f 367//4 364//4 23//4 18//4
f 355//4 354//4 33//4 32//4
f 303//4 291//4 69//4 70//4
f 362//4 359//4 29//4 28//4
f 348//5 250//5 198//5 199//5
f 358//4 355//4 32//4 31//4
f 334//5 284//5 212//5 15//5
f 232//3 231//3 216//3 178//3
f 246//5 294//5 200//5 201//5
f 344//3 303//3 70//3 9//3
f 276//2 281//2 160//2 168//2
f 354//4 351//4 34//4 33//4
f 349//3 348//3 199//3 126//3
f 370//4 367//4 18//4 17//4
f 337//5 243//5 207//5 209//5
f 242//2 342//2 190//2 86//2
f 346//4 344//4 9//4 41//4
f 299//2 310//2 197//2 128//2
f 351//4 312//4 35//4 34//4
f 313//3 349//3 126//3 194//3
f 332//5 236//5 213//5 214//5
f 264//3 268//3 169//3 171//3
f 250//3 338//3 149//3 198//3
f 231//5 324//5 215//5 216//5
f 364//4 261//4 24//4 23//4
f 312//4 251//4 40//4 35//4
f 320//5 326//5 221//5 224//5
f 291//3 290//3 12//3 69//3
f 338//3 337//3 209//3 149//3
f 251//4 346//4 41//4 40//4
f 261//4 259//4 25//4 24//4
f 335//3 334//3 15//3 59//3
f 333//3 332//3 214//3 162//3
f 281//2 283//2 152//2 160//2
f 259//4 362//4 28//4 25//4
f 294//3 335//3 59//3 200//3
f 278//4 276//4 168//4 10//4
f 236//3 232//3 178//3 213//3
f 283//2 246//2 201//2 152//2
f 98//6 99//6 290//6 291//6
f 287//6 306//6 335//6 294//6
f 315//6 327//6 333//6 243//6
f 5//6 6//6 259//6 261//6
f 208//6 205//6 318//6 317//6
f 300//6 301//6 337//6 338//6
f 6//6 7//6 362//6 259//6
f 255//6 256//6 348//6 349//6
f 336//6 345//6 231//6 232//6
f 38//6 39//6 303//6 344//6
f 37//6 38//6 344//6 346//6
f 309//6 289//6 246//6 283//6
f 327//6 328//6 332//6 333//6
f 329//6 330//6 276//6 278//6
f 39//6 98//6 291//6 303//6
f 7//6 8//6 359//6 362//6
f 99//6 100//6 264//6 290//6
f 306//6 307//6 334//6 335//6
f 8//6 13//6 358//6 359//6
f 331//6 329//6 278//6 275//6
f 203//6 239//6 313//6 266//6
f 311//6 309//6 283//6 281//6
f 256//6 277//6 250//6 348//6
f 104//6 48//6 342//6 242//6
f 289//6 287//6 294//6 246//6
f 14//6 21//6 354//6 355//6
f 13//6 14//6 355//6 358//6
f 301//6 315//6 243//6 337//6
f 360//6 361//6 320//6 324//6
f 330//6 311//6 281//6 276//6
f 328//6 325//6 236//6 332//6
f 277//6 300//6 338//6 250//6
f 345//6 360//6 324//6 231//6
f 22//6 26//6 312//6 351//6
f 1//6 3//6 367//6 370//6
f 325//6 336//6 232//6 236//6
f 361//6 357//6 326//6 320//6
f 21//6 22//6 351//6 354//6
f 100//6 202//6 268//6 264//6
f 2//6 1//6 370//6 368//6
f 279//6 257//6 310//6 299//6
f 26//6 30//6 251//6 312//6
f 239//6 255//6 349//6 313//6
f 3//6 4//6 364//6 367//6
f 202//6 203//6 266//6 268//6
f 307//6 308//6 284//6 334//6
f 30//6 37//6 346//6 251//6
f 4//6 5//6 261//6 364//6
f 17//6 18//6 43//6 42//6
f 18//6 23//6 47//6 43//6
f 23//6 24//6 46//6 47//6
f 24//6 25//6 51//6 46//6
f 25//6 28//6 50//6 51//6
f 28//6 29//6 52//6 50//6
f 29//6 31//6 55//6 52//6
f 31//6 32//6 57//6 55//6
f 32//6 33//6 58//6 57//6
f 33//6 34//6 65//6 58//6
f 34//6 35//6 66//6 65//6
f 35//6 40//6 67//6 66//6
f 40//6 41//6 68//6 67//6
f 41//6 9//6 70//6 68//6
f 70//6 69//6 12//6 171//6
f 190//6 71//6 87//6 86//6
f 71//6 72//6 88//6 87//6
f 72//6 73//6 89//6 88//6
f 73//6 74//6 90//6 89//6
f 74//6 75//6 91//6 90//6
f 75//6 77//6 92//6 91//6
f 77//6 79//6 94//6 92//6
f 79//6 81//6 95//6 94//6
f 81//6 82//6 96//6 95//6
f 82//6 83//6 97//6 96//6
f 83//6 84//6 101//6 97//6
f 84//6 85//6 103//6 101//6
f 85//6 171//6 169//6 103//6
f 103//6 169//6 195//6 194//6
f 192//6 105//6 116//6 115//6
f 111//6 112//6 124//6 123//6
f 112//6 114//6 125//6 124//6
f 113//6 194//6 126//6 127//6
f 123//6 124//6 137//6 136//6
f 127//6 126//6 199//6 198//6
f 197//6 129//6 141//6 128//6
f 131//6 133//6 201//6 200//6
f 139//6 198//6 149//6 150//6
f 140//6 200//6 59//6 151//6
f 201//6 142//6 153//6 152//6
f 150//6 149//6 209//6 207//6
f 151//6 59//6 15//6 212//6
f 152//6 153//6 159//6 160//6
f 157//6 207//6 162//6 167//6
f 160//6 159//6 172//6 168//6
f 167//6 162//6 214//6 213//6
f 10//6 168//6 175//6 174//6
f 173//6 213//6 178//6 179//6
f 179//6 178//6 216//6 215//6
f 183//6 215//6 224//6 221//6
usemtl pixel_art_A2D0EDFF
f 2//1 44//1 48//1 45//1
f 49//1 102//1 56//1 53//1
f 104//1 156//1 205//1 154//1
f 154//1 205//1 164//1 158//1
f 158//1 164//1 163//1 165//1
f 165//1 163//1 217//1 166//1
f 164//1 240//1 211//1 163//1
f 240//1 257//1 258//1 211//1
f 211//1 258//1 260//1 244//1
f 258//1 280//1 286//1 260//1
f 260//1 286//1 287//1 263//1
f 280//1 302//1 305//1 286//1
f 293//1 321//1 322//1 314//1
f 330//1 340//1 341//1 319//1
f 340//1 352//1 356//1 341//1
f 339//1 363//1 353//1 352//1
f 342//5 247//5 186//5 190//5
f 318//5 233//5 191//5 192//5
f 233//2 242//2 86//2 191//2
f 247//2 368//2 42//2 186//2
f 44//6 2//6 368//6 247//6
f 48//6 44//6 247//6 342//6
f 205//6 156//6 233//6 318//6
f 156//6 104//6 242//6 233//6
f 42//6 43//6 190//6 186//6
f 47//6 46//6 72//6 71//6
f 86//6 87//6 192//6 191//6
f 87//6 88//6 105//6 192//6
f 88//6 89//6 106//6 105//6
f 89//6 90//6 107//6 106//6
f 105//6 106//6 118//6 116//6
f 116//6 118//6 129//6 197//6
f 118//6 117//6 130//6 129//6
f 129//6 130//6 140//6 141//6
f 130//6 131//6 200//6 140//6
f 141//6 140//6 151//6 206//6
f 153//6 155//6 161//6 159//6
f 168//6 172//6 176//6 175//6
f 175//6 176//6 183//6 182//6
f 181//6 182//6 184//6 220//6
usemtl pixel_art_67B5E5FF
f 45//1 48//1 102//1 49//1
f 53//1 56//1 60//1 54//1
f 54//1 60//1 64//1 61//1
f 62//1 63//1 122//1 11//1
f 20//1 76//1 80//1 19//1
f 78//1 134//1 138//1 27//1
f 166//1 217//1 218//1 170//1
f 170//1 218//1 222//1 177//1
f 163//1 211//1 244//1 217//1
f 229//1 249//1 252//1 188//1
f 244//1 260//1 263//1 245//1
f 249//1 248//1 269//1 252//1
f 269//1 267//1 296//1 253//1
f 253//1 296//1 297//1 274//1
f 321//1 319//1 323//1 322//1
f 322//1 323//1 325//1 316//1
f 319//1 341//1 343//1 323//1
f 43//6 47//6 71//6 190//6
f 46//6 51//6 73//6 72//6
f 51//6 50//6 74//6 73//6
f 52//6 55//6 77//6 75//6
f 57//6 58//6 81//6 79//6
f 65//6 66//6 83//6 82//6
f 90//6 91//6 108//6 107//6
f 91//6 92//6 109//6 108//6
f 106//6 107//6 117//6 118//6
f 110//6 111//6 123//6 121//6
f 117//6 119//6 131//6 130//6
f 121//6 123//6 136//6 135//6
f 136//6 137//6 144//6 148//6
f 137//6 139//6 150//6 144//6
f 159//6 161//6 173//6 172//6
f 161//6 167//6 213//6 173//6
f 172//6 173//6 179//6 176//6
usemtl pixel_art_3D94CAFF
f 61//1 64//1 63//1 62//1
f 11//1 122//1 76//1 20//1
f 19//1 80//1 134//1 78//1
f 27//1 138//1 145//1 36//1
f 36//1 145//1 146//1 93//1
f 93//1 146//1 100//1 39//1
f 177//1 222//1 229//1 132//1
f 132//1 229//1 188//1 185//1
f 185//1 188//1 187//1 189//1
f 189//1 187//1 235//1 193//1
f 193//1 235//1 238//1 143//1
f 143//1 238//1 239//1 147//1
f 217//1 244//1 245//1 218//1
f 218//1 245//1 223//1 222//1
f 222//1 223//1 249//1 229//1
f 235//1 237//1 254//1 238//1
f 208//1 241//1 257//1 240//1
f 245//1 263//1 265//1 223//1
f 223//1 265//1 248//1 249//1
f 237//1 274//1 277//1 254//1
f 265//1 289//1 292//1 248//1
f 248//1 292//1 267//1 269//1
f 279//1 282//1 302//1 280//1
f 292//1 293//1 314//1 267//1
f 267//1 314//1 298//1 296//1
f 296//1 298//1 315//1 297//1
f 302//1 304//1 308//1 305//1
f 314//1 322//1 316//1 298//1
f 331//1 339//1 352//1 340//1
f 341//1 356//1 360//1 343//1
f 347//1 350//1 363//1 339//1
f 352//1 353//1 357//1 356//1
f 363//1 366//1 365//1 353//1
f 353//1 365//1 369//1 357//1
f 272//2 273//2 180//2 219//2
f 270//2 271//2 220//2 16//2
f 227//2 317//2 115//2 196//2
f 326//3 228//3 226//3 221//3
f 310//5 227//5 196//5 197//5
f 262//5 270//5 16//5 225//5
f 288//5 295//5 204//5 206//5
f 284//5 285//5 210//5 212//5
f 295//2 299//2 128//2 204//2
f 271//5 272//5 219//5 220//5
f 228//5 262//5 225//5 226//5
f 285//2 288//2 206//2 210//2
f 230//2 275//2 174//2 181//2
f 273//4 230//4 181//4 180//4
f 339//6 331//6 275//6 230//6
f 347//6 339//6 230//6 273//6
f 304//6 302//6 288//6 285//6
f 350//6 347//6 273//6 272//6
f 282//6 279//6 299//6 295//6
f 257//6 241//6 227//6 310//6
f 241//6 208//6 317//6 227//6
f 302//6 282//6 295//6 288//6
f 308//6 304//6 285//6 284//6
f 365//6 366//6 270//6 262//6
f 357//6 369//6 228//6 326//6
f 366//6 363//6 271//6 270//6
f 363//6 350//6 272//6 271//6
f 369//6 365//6 262//6 228//6
f 50//6 52//6 75//6 74//6
f 55//6 57//6 79//6 77//6
f 58//6 65//6 82//6 81//6
f 66//6 67//6 84//6 83//6
f 67//6 68//6 85//6 84//6
f 68//6 70//6 171//6 85//6
f 92//6 94//6 110//6 109//6
f 94//6 95//6 111//6 110//6
f 95//6 96//6 112//6 111//6
f 96//6 97//6 114//6 112//6
f 97//6 101//6 113//6 114//6
f 101//6 103//6 194//6 113//6
f 107//6 108//6 119//6 117//6
f 108//6 109//6 120//6 119//6
f 109//6 110//6 121//6 120//6
f 114//6 113//6 127//6 125//6
f 115//6 116//6 197//6 196//6
f 119//6 120//6 133//6 131//6
f 120//6 121//6 135//6 133//6
f 125//6 127//6 198//6 139//6
f 133//6 135//6 142//6 201//6
f 135//6 136//6 148//6 142//6
f 128//6 141//6 206//6 204//6
f 142//6 148//6 155//6 153//6
f 148//6 144//6 157//6 155//6
f 144//6 150//6 207//6 157//6
f 206//6 151//6 212//6 210//6
f 155//6 157//6 167//6 161//6
f 174//6 175//6 182//6 181//6
f 176//6 179//6 215//6 183//6
f 180//6 181//6 220//6 219//6
f 182//6 183//6 221//6 184//6
f 220//6 184//6 225//6 16//6
f 184//6 221//6 226//6 225//6
usemtl pixel_art_F3FAFFFF
f 234//1 253//1 274//1 237//1
f 124//6 125//6 139//6 137//6
