# Blender 3.3.1
# www.blender.org
mtllib hat_crown1.mtl
o crown1.png
v 6.000000 -2.500000 -1.000000
v 7.000000 -2.500000 -1.000000
v 6.000000 -2.500000 -2.000000
v 7.000000 -2.500000 -2.000000
v 8.000000 -2.500000 -1.000000
v 9.000000 -2.500000 -2.000000
v 9.000000 -2.500000 -1.000000
v 10.000000 -2.500000 -1.000000
v 11.000000 -2.500000 -1.000000
v 12.000000 -2.500000 -1.000000
v 13.000000 -2.500000 -2.000000
v 13.000000 -2.500000 -1.000000
v 14.000000 -2.500000 -2.000000
v 14.000000 -2.500000 -1.000000
v 15.000000 -2.500000 -1.000000
v 16.000000 -2.500000 -1.000000
v 17.000000 -2.500000 -1.000000
v 16.000000 -2.500000 -2.000000
v 6.000000 -2.500000 -3.000000
v 8.000000 -2.500000 -3.000000
v 7.000000 -2.500000 -3.000000
v 8.000000 -2.500000 -2.000000
v 10.000000 -2.500000 -2.000000
v 11.000000 -2.500000 -3.000000
v 11.000000 -2.500000 -2.000000
v 12.000000 -2.500000 -2.000000
v 12.000000 -2.500000 -3.000000
v 15.000000 -2.500000 -2.000000
v 17.000000 -2.500000 -2.000000
v 5.000000 -2.500000 -3.000000
v 5.000000 -2.500000 -4.000000
v 9.000000 -2.500000 -3.000000
v 10.000000 -2.500000 -3.000000
v 10.000000 -2.500000 -4.000000
v 13.000000 -2.500000 -3.000000
v 12.000000 -2.500000 -4.000000
v 14.000000 -2.500000 -3.000000
v 14.000000 -2.500000 -4.000000
v 15.000000 -2.500000 -3.000000
v 15.000000 -2.500000 -4.000000
v 16.000000 -2.500000 -3.000000
v 17.000000 -2.500000 -3.000000
v 18.000000 -2.500000 -3.000000
v 18.000000 -2.500000 -4.000000
v 17.000000 -2.500000 -4.000000
v 6.000000 -2.500000 -4.000000
v 7.000000 -2.500000 -4.000000
v 8.000000 -2.500000 -4.000000
v 8.000000 -2.500000 -5.000000
v 7.000000 -2.500000 -5.000000
v 9.000000 -2.500000 -4.000000
v 9.000000 -2.500000 -5.000000
v 11.000000 -2.500000 -4.000000
v 13.000000 -2.500000 -4.000000
v 14.000000 -2.500000 -5.000000
v 16.000000 -2.500000 -5.000000
v 15.000000 -2.500000 -5.000000
v 16.000000 -2.500000 -4.000000
v 18.000000 -2.500000 -5.000000
v 17.000000 -2.500000 -5.000000
v 5.000000 -2.500000 -5.000000
v 6.000000 -2.500000 -5.000000
v 6.000000 -2.500000 -6.000000
v 5.000000 -2.500000 -6.000000
v 12.000000 2.500000 -10.000000
v 12.000000 2.500000 -9.000000
v 9.000000 2.500000 -9.000000
v 4.000000 2.500000 -8.000000
v 4.000000 2.500000 -7.000000
v 4.000000 2.500000 -6.000000
v 14.000000 2.500000 -5.000000
v 13.000000 2.500000 -5.000000
v 12.000000 2.500000 -5.000000
v 11.000000 2.500000 -5.000000
v 10.000000 2.500000 -5.000000
v 9.000000 -2.500000 -6.000000
v 10.000000 -2.500000 -5.000000
v 11.000000 2.500000 -10.000000
v 11.000000 -2.500000 -6.000000
v 16.000000 2.500000 -4.000000
v 11.000000 -2.500000 -5.000000
v 5.000000 2.500000 -10.000000
v 15.000000 2.500000 -4.000000
v 13.000000 2.500000 -4.000000
v 12.000000 -2.500000 -5.000000
v 12.000000 2.500000 -4.000000
v 11.000000 2.500000 -4.000000
v 11.000000 2.500000 -9.000000
v 13.000000 -2.500000 -5.000000
v 6.000000 2.500000 -9.000000
v 7.000000 2.500000 -4.000000
v 5.000000 2.500000 -9.000000
v 6.000000 2.500000 -4.000000
v 19.000000 2.500000 -8.000000
v 17.000000 2.500000 -2.000000
v 15.000000 2.500000 -3.000000
v 13.000000 2.500000 -3.000000
v 11.000000 2.500000 -3.000000
v 9.000000 2.500000 -3.000000
v 15.000000 -2.500000 -6.000000
v 7.000000 2.500000 -8.000000
v 6.000000 2.500000 -7.000000
v 5.000000 2.500000 -7.000000
v 16.000000 -2.500000 -6.000000
v 6.000000 2.500000 -3.000000
v 18.000000 2.500000 -6.000000
v 18.000000 -2.500000 -6.000000
v 15.000000 2.500000 -2.000000
v 4.000000 -2.500000 -6.000000
v 17.000000 2.500000 -7.000000
v 5.000000 -2.500000 -7.000000
v 17.000000 2.500000 -6.000000
v 14.000000 2.500000 -2.000000
v 16.000000 2.500000 -6.000000
v 6.000000 -2.500000 -7.000000
v 15.000000 2.500000 -1.000000
v 13.000000 2.500000 -2.000000
v 15.000000 2.500000 -6.000000
v 14.000000 2.500000 -1.000000
v 13.000000 2.500000 -1.000000
v 7.000000 -2.500000 -6.000000
v 8.000000 -2.500000 -6.000000
v 13.000000 2.500000 -6.000000
v 7.000000 -2.500000 -7.000000
v 12.000000 2.500000 -1.000000
v 10.000000 2.500000 -2.000000
v 12.000000 2.500000 -6.000000
v 11.000000 2.500000 -1.000000
v 9.000000 2.500000 -2.000000
v 11.000000 2.500000 -6.000000
v 8.000000 2.500000 -2.000000
v 10.000000 2.500000 -6.000000
v 10.000000 -2.500000 -6.000000
v 7.000000 2.500000 -2.000000
v 9.000000 2.500000 -6.000000
v 8.000000 2.500000 -1.000000
v 13.000000 2.500000 -11.000000
v 14.000000 2.500000 -11.000000
v 9.000000 2.500000 -11.000000
v 10.000000 2.500000 -11.000000
v 12.000000 -2.500000 -6.000000
v 19.000000 2.500000 -10.000000
v 13.000000 2.500000 -10.000000
v 9.000000 2.500000 -10.000000
v 13.000000 -2.500000 -6.000000
v 9.000000 2.500000 -8.000000
v 5.000000 2.500000 -8.000000
v 6.000000 2.500000 -8.000000
v 14.000000 -2.500000 -6.000000
v 18.000000 2.500000 -7.000000
v 17.000000 2.500000 -5.000000
v 14.000000 -2.500000 -7.000000
v 18.000000 2.500000 -5.000000
v 15.000000 2.500000 -5.000000
v 16.000000 2.500000 -5.000000
v 7.000000 2.500000 -5.000000
v 17.000000 2.500000 -4.000000
v 17.000000 -2.500000 -6.000000
v 7.000000 2.500000 -3.000000
v 8.000000 2.500000 -3.000000
v 6.000000 2.500000 -6.000000
v 18.000000 2.500000 -10.000000
v 19.000000 2.500000 -9.000000
v 18.000000 2.500000 -9.000000
v 8.000000 2.500000 -5.000000
v 19.000000 -2.500000 -6.000000
v 19.000000 -2.500000 -7.000000
v 18.000000 -2.500000 -7.000000
v 4.000000 -2.500000 -7.000000
v 8.000000 2.500000 -4.000000
v 18.000000 2.500000 -4.000000
v 18.000000 2.500000 -3.000000
v 3.000000 2.500000 -10.000000
v 3.000000 2.500000 -9.000000
v 6.000000 -2.500000 -8.000000
v 5.000000 -2.500000 -8.000000
v 17.000000 2.500000 -9.000000
v 14.000000 2.500000 -4.000000
v 7.000000 -2.500000 -8.000000
v 14.000000 2.500000 -3.000000
v 8.000000 -2.500000 -7.000000
v 18.000000 2.500000 -8.000000
v 9.000000 -2.500000 -8.000000
v 8.000000 -2.500000 -8.000000
v 9.000000 -2.500000 -7.000000
v 10.000000 -2.500000 -7.000000
v 10.000000 -2.500000 -8.000000
v 17.000000 2.500000 -8.000000
v 13.000000 2.500000 -9.000000
v 11.000000 -2.500000 -7.000000
v 11.000000 -2.500000 -8.000000
v 14.000000 2.500000 -8.000000
v 12.000000 -2.500000 -7.000000
v 13.000000 -2.500000 -7.000000
v 13.000000 2.500000 -8.000000
v 12.000000 -2.500000 -8.000000
v 16.000000 2.500000 -8.000000
v 16.000000 2.500000 -7.000000
v 12.000000 2.500000 -8.000000
v 13.000000 2.500000 -7.000000
v 12.000000 2.500000 -7.000000
v 15.000000 -2.500000 -7.000000
v 15.000000 -2.500000 -8.000000
v 12.000000 2.500000 -3.000000
v 16.000000 -2.500000 -7.000000
v 9.000000 2.500000 -7.000000
v 8.000000 2.500000 -8.000000
v 16.000000 -2.500000 -8.000000
v 17.000000 -2.500000 -7.000000
v 8.000000 2.500000 -7.000000
v 14.000000 2.500000 -7.000000
v 14.000000 2.500000 -6.000000
v 7.000000 2.500000 -7.000000
v 8.000000 2.500000 -6.000000
v 7.000000 2.500000 -6.000000
v 5.000000 2.500000 -6.000000
v 4.000000 -2.500000 -8.000000
v 6.000000 2.500000 -5.000000
v 5.000000 -2.500000 -9.000000
v 5.000000 2.500000 -5.000000
v 9.000000 2.500000 -5.000000
v 9.000000 2.500000 -4.000000
v 6.000000 -2.500000 -9.000000
v 20.000000 2.500000 -10.000000
v 20.000000 2.500000 -9.000000
v 14.000000 2.500000 -10.000000
v 14.000000 2.500000 -9.000000
v 9.000000 -2.500000 -9.000000
v 10.000000 2.500000 -10.000000
v 10.000000 2.500000 -9.000000
v 11.000000 -2.500000 -9.000000
v 17.000000 2.500000 -3.000000
v 16.000000 2.500000 -3.000000
v 4.000000 2.500000 -10.000000
v 4.000000 2.500000 -9.000000
v 12.000000 -2.500000 -9.000000
v 13.000000 -2.500000 -8.000000
v 14.000000 -2.500000 -8.000000
v 10.000000 2.500000 -4.000000
v 13.000000 -2.500000 -9.000000
v 17.000000 -2.500000 -8.000000
v 18.000000 -2.500000 -8.000000
v 10.000000 2.500000 -3.000000
v 17.000000 -2.500000 -9.000000
v 5.000000 2.500000 -4.000000
v 19.000000 -2.500000 -8.000000
v 5.000000 2.500000 -3.000000
v 15.000000 2.500000 -8.000000
v 3.000000 -2.500000 -9.000000
v 4.000000 -2.500000 -9.000000
v 4.000000 -2.500000 -10.000000
v 3.000000 -2.500000 -10.000000
v 15.000000 2.500000 -7.000000
v 11.000000 2.500000 -8.000000
v 5.000000 -2.500000 -10.000000
v 11.000000 2.500000 -7.000000
v 10.000000 2.500000 -8.000000
v 10.000000 -2.500000 -9.000000
v 10.000000 -2.500000 -10.000000
v 9.000000 -2.500000 -10.000000
v 10.000000 2.500000 -7.000000
v 12.000000 2.500000 -2.000000
v 11.000000 -2.500000 -10.000000
v 11.000000 2.500000 -2.000000
v 19.000000 2.500000 -7.000000
v 19.000000 2.500000 -6.000000
v 16.000000 2.500000 -2.000000
v 12.000000 -2.500000 -10.000000
v 17.000000 2.500000 -1.000000
v 14.000000 -2.500000 -9.000000
v 14.000000 -2.500000 -10.000000
v 13.000000 -2.500000 -10.000000
v 18.000000 -2.500000 -9.000000
v 19.000000 -2.500000 -9.000000
v 16.000000 2.500000 -1.000000
v 18.000000 -2.500000 -10.000000
v 10.000000 2.500000 -1.000000
v 20.000000 -2.500000 -9.000000
v 20.000000 -2.500000 -10.000000
v 19.000000 -2.500000 -10.000000
v 9.000000 2.500000 -1.000000
v 6.000000 2.500000 -2.000000
v 10.000000 -2.500000 -11.000000
v 9.000000 -2.500000 -11.000000
v 7.000000 2.500000 -1.000000
v 6.000000 2.500000 -1.000000
v 14.000000 -2.500000 -11.000000
v 13.000000 -2.500000 -11.000000
vn -0.0000 -1.0000 -0.0000
vn -0.0000 1.0000 -0.0000
vn 1.0000 -0.0000 -0.0000
vn -0.0000 -0.0000 -1.0000
vn -1.0000 -0.0000 -0.0000
vn -0.0000 -0.0000 1.0000
s 0
usemtl pixel_art_EF8F1AFF
f 1//1 3//1 4//1 2//1
f 2//1 4//1 22//1 5//1
f 5//1 22//1 6//1 7//1
f 7//1 6//1 23//1 8//1
f 8//1 23//1 25//1 9//1
f 9//1 25//1 26//1 10//1
f 10//1 26//1 11//1 12//1
f 12//1 11//1 13//1 14//1
f 14//1 13//1 28//1 15//1
f 15//1 28//1 18//1 16//1
f 16//1 18//1 29//1 17//1
f 30//1 31//1 46//1 19//1
f 42//1 45//1 44//1 43//1
f 45//1 60//1 59//1 44//1
f 121//1 124//1 181//1 122//1
f 133//1 186//1 190//1 79//1
f 79//1 190//1 193//1 141//1
f 149//1 152//1 202//1 100//1
f 100//1 202//1 205//1 104//1
f 107//1 168//1 167//1 166//1
f 115//1 175//1 179//1 124//1
f 186//1 187//1 191//1 190//1
f 168//1 242//1 246//1 167//1
f 237//1 240//1 270//1 238//1
f 286//2 285//2 134//2 282//2
f 285//2 136//2 131//2 134//2
f 136//2 281//2 129//2 131//2
f 281//2 277//2 126//2 129//2
f 277//2 128//2 264//2 126//2
f 128//2 125//2 262//2 264//2
f 125//2 120//2 117//2 262//2
f 120//2 119//2 113//2 117//2
f 119//2 116//2 108//2 113//2
f 116//2 275//2 267//2 108//2
f 275//2 269//2 95//2 267//2
f 247//2 105//2 93//2 245//2
f 232//2 172//2 171//2 157//2
f 157//2 171//2 153//2 151//2
f 215//2 214//2 210//2 213//2
f 132//2 130//2 256//2 261//2
f 130//2 127//2 201//2 256//2
f 212//2 118//2 253//2 211//2
f 118//2 114//2 198//2 253//2
f 106//2 266//2 265//2 150//2
f 102//2 213//2 101//2 148//2
f 261//2 256//2 254//2 257//2
f 150//2 265//2 94//2 182//2
f 195//2 192//2 227//2 189//2
f 166//3 167//3 265//3 266//3
f 5//6 7//6 281//6 136//6
f 7//6 8//6 277//6 281//6
f 42//6 43//6 172//6 232//6
f 167//3 246//3 94//3 265//3
f 43//3 44//3 171//3 172//3
f 8//6 9//6 128//6 277//6
f 124//3 179//3 101//3 213//3
f 31//5 30//5 247//5 245//5
f 9//6 10//6 125//6 128//6
f 10//6 12//6 120//6 125//6
f 12//6 14//6 119//6 120//6
f 17//3 29//3 95//3 269//3
f 107//6 166//6 266//6 106//6
f 238//3 270//3 227//3 192//3
f 14//6 15//6 116//6 119//6
f 190//3 191//3 254//3 256//3
f 1//6 2//6 285//6 286//6
f 44//3 59//3 153//3 171//3
f 15//6 16//6 275//6 116//6
f 3//5 1//5 286//5 282//5
f 181//4 124//4 213//4 210//4
f 193//4 190//4 256//4 201//4
f 16//6 17//6 269//6 275//6
f 205//4 202//4 253//4 198//4
f 179//4 175//4 148//4 101//4
f 2//6 5//6 136//6 285//6
f 30//6 19//6 105//6 247//6
usemtl pixel_art_FFEF75FF
f 3//1 19//1 21//1 4//1
f 4//1 21//1 20//1 22//1
f 22//1 20//1 32//1 6//1
f 6//1 32//1 33//1 23//1
f 23//1 33//1 24//1 25//1
f 25//1 24//1 27//1 26//1
f 26//1 27//1 35//1 11//1
f 11//1 35//1 37//1 13//1
f 13//1 37//1 39//1 28//1
f 28//1 39//1 41//1 18//1
f 62//1 63//1 121//1 50//1
f 50//1 121//1 122//1 49//1
f 77//1 133//1 79//1 81//1
f 81//1 79//1 141//1 85//1
f 55//1 149//1 100//1 57//1
f 57//1 100//1 104//1 56//1
f 63//1 115//1 124//1 121//1
f 122//1 181//1 185//1 76//1
f 104//1 205//1 209//1 158//1
f 111//1 176//1 175//1 115//1
f 181//1 184//1 183//1 185//1
f 194//1 237//1 238//1 152//1
f 205//1 208//1 241//1 209//1
f 217//1 250//1 219//1 176//1
f 183//1 228//1 258//1 187//1
f 196//1 236//1 240//1 237//1
f 241//1 244//1 273//1 242//1
f 249//1 252//1 251//1 250//1
f 228//1 260//1 259//1 258//1
f 236//1 268//1 272//1 240//1
f 273//1 276//1 280//1 274//1
f 260//1 284//1 283//1 259//1
f 282//2 134//2 159//2 105//2
f 134//2 131//2 160//2 159//2
f 131//2 129//2 99//2 160//2
f 129//2 126//2 243//2 99//2
f 126//2 264//2 98//2 243//2
f 264//2 262//2 204//2 98//2
f 262//2 117//2 97//2 204//2
f 117//2 113//2 180//2 97//2
f 113//2 108//2 96//2 180//2
f 108//2 267//2 233//2 96//2
f 218//2 156//2 215//2 161//2
f 156//2 165//2 214//2 215//2
f 75//2 74//2 130//2 132//2
f 74//2 73//2 127//2 130//2
f 71//2 154//2 118//2 212//2
f 154//2 155//2 114//2 118//2
f 161//2 215//2 213//2 102//2
f 214//2 135//2 206//2 210//2
f 114//2 112//2 110//2 198//2
f 103//2 102//2 148//2 147//2
f 210//2 206//2 146//2 207//2
f 200//2 211//2 192//2 195//2
f 198//2 110//2 188//2 197//2
f 68//2 147//2 92//2 235//2
f 146//2 257//2 230//2 67//2
f 199//2 195//2 189//2 66//2
f 188//2 182//2 164//2 177//2
f 174//2 235//2 234//2 173//2
f 67//2 230//2 229//2 144//2
f 66//2 189//2 143//2 65//2
f 164//2 163//2 142//2 162//2
f 144//2 229//2 140//2 139//2
f 241//4 208//4 197//4 188//4
f 184//5 181//5 210//5 207//5
f 273//4 244//4 177//4 164//4
f 250//5 217//5 68//5 235//5
f 228//5 183//5 146//5 67//5
f 272//4 268//4 65//4 143//4
f 280//4 276//4 162//4 142//4
f 236//5 196//5 199//5 66//5
f 260//5 228//5 67//5 144//5
f 251//4 252//4 173//4 234//4
f 268//5 236//5 66//5 65//5
f 259//3 283//3 140//3 229//3
f 276//5 273//5 164//5 162//5
f 284//5 260//5 144//5 139//5
f 208//5 205//5 198//5 197//5
f 244//5 241//5 188//5 177//5
f 283//4 284//4 139//4 140//4
f 249//6 250//6 235//6 174//6
f 183//4 184//4 207//4 146//4
f 252//5 249//5 174//5 173//5
f 19//5 3//5 282//5 105//5
usemtl pixel_art_F9A846FF
f 18//1 41//1 42//1 29//1
f 39//1 40//1 58//1 41//1
f 41//1 58//1 45//1 42//1
f 58//1 56//1 60//1 45//1
f 60//1 158//1 107//1 59//1
f 158//1 209//1 168//1 107//1
f 152//1 238//1 203//1 202//1
f 176//1 219//1 223//1 175//1
f 187//1 258//1 231//1 191//1
f 242//1 273//1 274//1 246//1
f 250//1 251//1 255//1 219//1
f 258//1 259//1 263//1 231//1
f 240//1 272//1 271//1 270//1
f 274//1 280//1 279//1 278//1
f 272//1 288//1 287//1 271//1
f 267//2 95//2 232//2 233//2
f 96//2 233//2 80//2 83//2
f 233//2 232//2 157//2 80//2
f 80//2 157//2 151//2 155//2
f 151//2 153//2 106//2 112//2
f 112//2 106//2 150//2 110//2
f 211//2 253//2 248//2 192//2
f 147//2 148//2 90//2 92//2
f 257//2 254//2 88//2 230//2
f 182//2 94//2 163//2 164//2
f 235//2 92//2 82//2 234//2
f 230//2 88//2 78//2 229//2
f 189//2 227//2 226//2 143//2
f 163//2 225//2 224//2 142//2
f 143//2 226//2 138//2 137//2
f 270//3 271//3 226//3 227//3
f 219//3 255//3 82//3 92//3
f 223//4 219//4 92//4 90//4
f 202//3 203//3 248//3 253//3
f 255//4 251//4 234//4 82//4
f 263//4 259//4 229//4 78//4
f 231//3 263//3 78//3 88//3
f 278//3 279//3 224//3 225//3
f 175//3 223//3 90//3 148//3
f 191//3 231//3 88//3 254//3
f 274//6 278//6 225//6 163//6
f 288//5 272//5 143//5 137//5
f 271//3 287//3 138//3 226//3
f 59//3 107//3 106//3 153//3
f 279//4 280//4 142//4 224//4
f 287//4 288//4 137//4 138//4
f 246//3 274//3 163//3 94//3
f 203//4 238//4 192//4 248//4
f 29//3 42//3 232//3 95//3
usemtl pixel_art_F4BD19FF
f 19//1 46//1 47//1 21//1
f 21//1 47//1 48//1 20//1
f 33//1 34//1 53//1 24//1
f 24//1 53//1 36//1 27//1
f 37//1 38//1 40//1 39//1
f 38//1 55//1 57//1 40//1
f 40//1 57//1 56//1 58//1
f 52//1 76//1 133//1 77//1
f 89//1 145//1 149//1 55//1
f 105//2 159//2 91//2 93//2
f 159//2 160//2 170//2 91//2
f 243//2 98//2 87//2 239//2
f 98//2 204//2 86//2 87//2
f 180//2 96//2 83//2 178//2
f 178//2 83//2 154//2 71//2
f 83//2 80//2 155//2 154//2
f 221//2 75//2 132//2 135//2
f 72//2 71//2 212//2 123//2
usemtl pixel_art_BC1515FF
f 20//1 48//1 51//1 32//1
f 32//1 51//1 34//1 33//1
f 27//1 36//1 54//1 35//1
f 35//1 54//1 38//1 37//1
f 160//2 99//2 222//2 170//2
f 99//2 243//2 239//2 222//2
f 204//2 97//2 84//2 86//2
f 97//2 180//2 178//2 84//2
usemtl pixel_art_FFCD38FF
f 31//1 61//1 62//1 46//1
f 46//1 62//1 50//1 47//1
f 47//1 50//1 49//1 48//1
f 34//1 77//1 81//1 53//1
f 53//1 81//1 85//1 36//1
f 61//1 64//1 63//1 62//1
f 49//1 122//1 76//1 52//1
f 85//1 141//1 145//1 89//1
f 56//1 104//1 158//1 60//1
f 109//1 169//1 111//1 64//1
f 64//1 111//1 115//1 63//1
f 76//1 185//1 186//1 133//1
f 141//1 193//1 194//1 145//1
f 145//1 194//1 152//1 149//1
f 169//1 217//1 176//1 111//1
f 185//1 183//1 187//1 186//1
f 193//1 196//1 237//1 194//1
f 209//1 241//1 242//1 168//1
f 245//2 93//2 218//2 220//2
f 93//2 91//2 156//2 218//2
f 91//2 170//2 165//2 156//2
f 239//2 87//2 74//2 75//2
f 87//2 86//2 73//2 74//2
f 220//2 218//2 161//2 216//2
f 165//2 221//2 135//2 214//2
f 73//2 72//2 123//2 127//2
f 155//2 151//2 112//2 114//2
f 70//2 216//2 103//2 69//2
f 216//2 161//2 102//2 103//2
f 135//2 132//2 261//2 206//2
f 127//2 123//2 200//2 201//2
f 123//2 212//2 211//2 200//2
f 69//2 103//2 147//2 68//2
f 206//2 261//2 257//2 146//2
f 201//2 200//2 195//2 199//2
f 110//2 150//2 182//2 188//2
f 169//5 109//5 70//5 69//5
f 64//5 61//5 220//5 216//5
f 61//5 31//5 245//5 220//5
f 196//5 193//5 201//5 199//5
f 217//5 169//5 69//5 68//5
f 109//6 64//6 216//6 70//6
usemtl pixel_art_FFF8F8FF
f 48//1 49//1 52//1 51//1
f 36//1 85//1 89//1 54//1
f 170//2 222//2 221//2 165//2
f 86//2 84//2 72//2 73//2
usemtl pixel_art_F41919FF
f 51//1 52//1 77//1 34//1
f 54//1 89//1 55//1 38//1
f 222//2 239//2 75//2 221//2
f 84//2 178//2 71//2 72//2
